<?xml version="1.0" encoding="utf-8" ?><svg xmlns="http://www.w3.org/2000/svg" xmlns:xlink="http://www.w3.org/1999/xlink" width="1393" height="687" viewBox="0 0 1393 687"><path fill="#3A2C65" d="M115.019 167.55L114.438 167.275C98.5076 159.597 111.122 139.163 115.864 129.19C119.668 121.19 120.243 109.418 125.626 101.404C145.728 61.1407 181.566 30.8465 224.136 16.8773C270.163 1.83498 320.303 5.913 363.294 28.1954C399.486 46.5974 430.954 77.1623 443.73 116.398C449.191 133.652 451.326 151.785 450.023 169.835C449.798 173.135 447.882 181.877 448.325 184.169C450.355 194.673 456.86 204.978 461.42 214.698C473.678 240.83 472.935 272.268 460.29 298.102C458.461 301.838 454.569 306.836 453.078 310.291C450.368 316.572 453.109 329.082 455.057 335.395C461.052 354.827 474.752 367.78 486.202 383.797C503.687 408.259 510.68 439.588 497.042 467.54C490.048 481.873 477.32 491.872 463.43 499.268C480.561 520.671 488.838 548.76 493.847 575.351C494.94 581.151 498.734 599.492 494.349 604.071C420.618 681.06 301.379 695.187 201.209 674.636C133.894 660.826 63.5955 630.602 7.1814 590.706C5.01148 589.172 3.39811 586.853 2.07355 584.562C6.81606 543.318 12.0999 513.085 42.928 482.394C42.7219 460.775 47.2909 445.218 65.139 431.545C53.2751 428.094 41.0916 416.682 35.2934 405.998C14.9397 368.497 43.8098 332.622 63.6731 302.36C72.1193 289.493 78.1281 277.945 84.7958 264.145C81.6024 233.037 82.749 195.679 117.003 182.824C116.95 177.171 117.722 174.328 119.621 168.897L115.019 167.55ZM67.6998 415.284L70.2774 417.547L71.0365 417.443C69.6366 413.873 67.893 410.404 66.8889 406.694C61.5449 386.95 66.4691 365.821 74.4191 347.556C75.0705 346.06 76.5631 343.702 76.3395 342.149C65.3992 356.718 54.779 374.236 57.4041 393.228C58.4806 401.016 62.085 409.678 67.6998 415.284ZM460.333 481.724C474.557 461.81 473.769 446.288 465.235 424.083C462.174 416.895 456.96 408.066 452.209 401.843C454.877 408.826 458.487 417.973 460.198 425.202C466.191 443.559 466.238 463.339 460.333 481.724Z"/><path fill="#975699" d="M115.019 167.55L113.124 164.346C113.983 162.617 113.52 163.226 115.541 162.081C117.94 161.836 120.082 162.8 121.269 164.933C120.926 166.92 120.72 167.189 119.621 168.897L115.019 167.55Z"/><path fill="#AA61D7" d="M341.814 454.181C346.729 455.492 361.936 463.193 365.447 467.74C366.877 469.592 366.115 472.47 368.605 473.577C368.209 471.147 368.459 470.111 369.884 468.041C372.093 477.676 371.614 485.937 366.358 494.625C363.201 499.844 355.414 508.257 350.378 511.388C349.309 512.864 348.546 512.99 346.842 513.599C343.456 513.462 340.774 511.778 337.58 510.348C330.834 512.129 327.119 513.45 321.451 517.952C321.649 521.275 322.343 523.638 320.406 525.926L317.938 526.655C314.303 527.479 308.225 529.327 307.225 533.479L307.639 534.882C311.412 534.889 317.426 532.039 322.999 531.457C327.338 556.197 328.133 582.99 332.509 607.825C332.911 610.106 334.35 611.721 335.998 613.276C339.605 613.13 343.102 612.866 346.684 613.357C350.086 612.181 350.881 611.871 353.859 609.904C354.036 601.777 351.973 587.392 350.976 578.853C348.701 560.469 346.654 542.058 344.833 523.623C354.291 520.208 360.693 514.923 369.247 509.603C371.043 510.52 372.686 513.515 372.305 515.476C370.21 526.266 364.134 534.488 362.286 545.587C359.237 563.898 369.53 583.41 388.791 586.541C391.609 586.993 400.27 586.873 402.707 584.992C402.452 582.614 401.812 582.652 399.888 580.461C392.437 578.842 388.578 576.789 388.698 568.196C389.031 544.397 413.871 538.411 430.567 528.432C440.091 522.739 448.195 517.054 455.925 508.967C457.775 511.279 458.843 513.015 460.403 515.545C472.753 535.635 483.394 571.604 485.427 595.167C480.23 604.186 462.634 617.911 453.446 623.809C445.17 600.966 438.129 570.411 443.258 546.327C429.08 578.696 436.191 598.424 443.983 630.22C433.507 637.066 414.645 645.899 402.714 650.499C338.306 675.332 270.186 677.771 202.944 664.061C190.756 661.575 169.063 655.995 157.664 651.922C148.99 623.267 142.549 606.768 129.563 579.337C129.417 583.753 133.163 592.201 133.584 596.685C134.292 604.233 145.329 642.439 144.268 647.072C142.355 647.147 141.793 646.735 140.107 645.878C106.401 634.211 39.839 605.316 13.5352 581.415C16.6751 543.94 32.2506 482.497 80.8778 482.053C92.0806 481.951 102.332 486.192 112.786 489.932C130.734 496.6 152.293 505.18 169.489 513.754C171.818 514.915 173.633 517.763 173.375 520.498C173.547 531.34 168.188 550.253 154.222 550.258C152.153 550.259 151.85 549.875 150.15 550.945C149.128 555.291 161.742 559.381 165.262 559.913C175.491 561.457 190.04 555.34 198.007 549.316C222.535 545.468 229.394 540.011 243.031 519.795L249.107 523.219C252.565 524.525 254.507 525.221 258.179 526.079C260.914 544.556 263.407 563.068 265.656 581.61C267.058 592.728 268.602 598.918 267.698 610.288C267.176 616.851 269.644 631.358 275.261 635.682C278.569 638.209 282.759 639.292 286.877 638.683C292.473 637.893 295.014 634.043 296.894 629.118C296.235 619.913 294.874 610.665 293.177 601.597C292.705 599.074 290.415 597.034 290.117 594.658C287.543 574.136 283.983 553.65 281.345 533.149C285.257 533.534 289.734 534.351 293.387 533.175L294.304 532.198C293.002 529.454 288.487 528.556 285.687 527.701C277.42 525.028 285.281 521.61 279.767 513.538L278.31 512.609C273.7 509.655 269.048 506.341 263.244 507.319C257.102 508.354 256.53 513.41 253.636 516.779L252.604 516.785C250.975 515.649 248.032 514.957 246.027 514.366C245.987 510.903 248.797 504.199 249.489 500.441C251.224 491.022 250.714 481.267 249.31 471.937C264.03 480.732 288.533 499.943 298.625 513.992C301.051 517.37 302.101 520.943 303.141 524.897C310.925 499.448 352.757 482.669 341.814 454.181Z"/><path fill="#7A52C3" d="M40.6131 510.854C59.3311 509.008 65.2752 511.78 82.3487 520.84C86.0145 522.786 90.2824 528.666 93.5002 531.648C103.847 541.239 125.73 565.537 129.563 579.337C129.417 583.753 133.163 592.201 133.584 596.685C134.292 604.233 145.329 642.439 144.268 647.072C142.355 647.147 141.793 646.735 140.107 645.878C126.535 591.045 102.018 526.298 40.6131 510.854Z"/><path fill="#7A52C3" d="M455.925 508.967C457.775 511.279 458.843 513.015 460.403 515.545C458.167 530.47 418.2 545.704 404.917 550.42C400.205 560.951 398.984 569.109 399.888 580.461C392.437 578.842 388.578 576.789 388.698 568.196C389.031 544.397 413.871 538.411 430.567 528.432C440.091 522.739 448.195 517.054 455.925 508.967Z"/><path fill="#3A2C65" d="M346.684 613.357C350.086 612.181 350.881 611.871 353.859 609.904C354.423 613.501 354.418 614.492 354.117 618.13C355.558 624.941 359.578 641.772 355.739 646.867C350.16 654.269 336.123 648.631 336.078 638.07C336.047 630.93 331.552 622.535 336.241 615.667L335.998 613.276C339.605 613.13 343.102 612.866 346.684 613.357Z"/><path fill="#6C44A4" d="M346.684 613.357C350.086 612.181 350.881 611.871 353.859 609.904C354.423 613.501 354.418 614.492 354.117 618.13C351.608 616.013 350.042 615.191 346.977 614.228L346.684 613.357Z"/><path fill="#4B3877" d="M335.998 613.276C339.605 613.13 343.102 612.866 346.684 613.357L346.977 614.228C342.775 614.356 340.227 614.221 336.241 615.667L335.998 613.276Z"/><path fill="#49BAD9" d="M343.057 619.352L346.218 619.825C347.383 620.597 347.869 621.589 348.348 622.851C350.072 627.391 352.007 636.806 350.042 641.265L346.472 641.225C345.312 640.492 344.79 640.273 344.181 638.992C341.822 634.024 341.248 624.488 343.057 619.352Z"/><path fill="#7A52C3" d="M243.031 519.795L249.107 523.219C249.16 524.365 249.384 528.873 248.972 529.785C240.898 547.664 220.702 552.009 203.057 553.731C201.635 553.869 200.149 553.604 199.047 553.062C198.584 551.645 198.301 550.773 198.007 549.316C222.535 545.468 229.394 540.011 243.031 519.795Z"/><path fill="#7A52C3" d="M112.786 489.932C130.734 496.6 152.293 505.18 169.489 513.754C171.818 514.915 173.633 517.763 173.375 520.498C172.526 520.869 171.988 521.193 171.282 521.821C156.693 521.323 162.912 514.499 156.357 512.06C148.692 509.207 113.286 499.409 110.662 491.657L112.786 489.932Z"/><path fill="#6C44A4" d="M316.861 517.212C327.4 506.59 331.407 503.941 346.692 507.212C351.126 508.161 350.789 506.711 354.085 506.36L350.378 511.388C349.309 512.864 348.546 512.99 346.842 513.599C343.456 513.462 340.774 511.778 337.58 510.348C330.834 512.129 327.119 513.45 321.451 517.952C321.649 521.275 322.343 523.638 320.406 525.926L317.938 526.655C315.866 524.421 316.713 520.207 316.861 517.212Z"/><path fill="#7A52C3" d="M252.604 516.785C251.53 499.926 274.338 496.2 278.31 512.609C273.7 509.655 269.048 506.341 263.244 507.319C257.102 508.354 256.53 513.41 253.636 516.779L252.604 516.785Z"/><path fill="#7A52C3" d="M279.767 513.538C284.76 516.735 285.674 521.866 285.687 527.701C277.42 525.028 285.281 521.61 279.767 513.538Z"/><path fill="#FECCC8" d="M289.202 184.802C329.09 176.076 349.852 153.596 360.96 114.395C362.96 117.194 364.995 120.637 366.749 123.608C379.982 146.022 394.6 167.389 408.69 189.242C403.216 187.712 399.399 187.304 393.797 187.021C382.778 188.379 358.371 195.193 355.441 207.63C356.858 211.071 360.778 209.906 363.884 209.07C376.138 205.774 386.654 203.427 399.338 203.123C401.42 203.122 408.525 202.751 409.775 204.454C412.775 208.539 413.222 217.791 409.264 221.534C406.451 224.194 396.978 222.446 393.652 221.194C380.758 220.828 374.575 222.638 363.446 229.152C360.753 231.772 358.197 234.119 355.905 237.111C353.739 241.061 351.195 245.506 351.247 250.125L351.476 250.569C354.518 250.24 355.204 247.335 356.484 244.742L356.936 244.819C358.582 252.083 360.802 252.854 367.496 255.642C379.566 256.779 384.048 250.018 386.573 239.44C385.571 237.048 384.132 234.358 384.455 231.859C385.754 230.089 385.015 230.567 387.259 230.12C391.845 231.163 394.559 233.732 397.889 236.866C398.128 241.547 397.96 244.537 396.808 249.056L397.877 249.781L399.739 247.851C401.887 244.347 404.322 239.879 408.111 238.142L409.318 238.495C408.937 278.78 404.174 315.599 376.267 346.771C371.187 352.445 365.033 361.328 359.264 365.953C353.229 375.342 332.391 392.789 320.33 394.054C295.977 396.608 273.473 379.04 253.72 366.096C244.751 360.218 225.308 344.166 219.367 333.959C216.789 324.669 213.194 299.154 211.395 288.616C206.115 263.228 208.109 227.461 221.074 204.455C223.617 199.943 237.12 196.219 242.254 195.578C256.523 194.322 273.739 196.474 287.485 200.721C293.026 202.433 307.598 210.588 312.345 207.308C314.875 201.057 302.428 191.129 297.932 187.94C295.186 186.665 292.095 185.746 289.202 184.802Z"/><path fill="#3A2C65" d="M217.484 218.074C225.332 218.82 234.395 216.971 242.421 216.08C263.079 213.786 298.005 216.635 296.836 245.111C296.818 245.543 296.501 245.971 296.273 246.315C294.512 245.338 293.986 244 293.013 242.26L291.993 243.644L291.777 243.071C291.028 246.15 291.456 248.803 291.738 251.941C280.343 255.117 268.296 255.406 256.599 253.765C254.076 253.411 249.799 251.905 248.23 251.761C239.593 250.084 233.04 239.601 227.158 232.416C224.084 227.546 217.001 223.721 216.539 219.022L217.484 218.074Z"/><path fill="#F9F8F8" d="M248.23 251.761C242.399 248.717 232.874 240.024 237.312 233.03C239.007 231.632 239.355 231.485 241.481 231.258L241.997 231.207C242.593 230.377 242.817 230.212 243.549 229.53C244.595 230.426 246.459 239.832 248.919 243.611C254.067 251.522 264.518 251.823 271.146 245.636C274.401 242.598 275.498 235.228 276.346 230.565C283.392 233.586 289.257 235.332 293.013 242.26L291.993 243.644L291.777 243.071C291.028 246.15 291.456 248.803 291.738 251.941C280.343 255.117 268.296 255.406 256.599 253.765C254.076 253.411 249.799 251.905 248.23 251.761Z"/><path fill="#F9F8F8" d="M266.21 233.791C267.458 233.056 269.066 233.46 269.817 234.699C270.569 235.937 270.186 237.55 268.958 238.318C268.148 238.824 267.129 238.856 266.29 238.4C265.451 237.945 264.922 237.073 264.906 236.119C264.889 235.164 265.387 234.275 266.21 233.791Z"/><path fill="#FE9DCE" d="M289.202 184.802C329.09 176.076 349.852 153.596 360.96 114.395C362.96 117.194 364.995 120.637 366.749 123.608C379.982 146.022 394.6 167.389 408.69 189.242C403.216 187.712 399.399 187.304 393.797 187.021C390.066 176.764 369.332 133.413 361.646 128.669C358.225 132.197 354.993 142.995 352.514 146.647C348.256 152.917 339.27 163.114 333.498 168.287C326.361 174.683 314.901 180.602 306.422 185.237C303.811 186.665 300.709 185.526 297.932 187.94C295.186 186.665 292.095 185.746 289.202 184.802Z"/><path fill="#FE9DCE" d="M399.739 247.851C401.887 244.347 404.322 239.879 408.111 238.142L409.318 238.495C408.937 278.78 404.174 315.599 376.267 346.771C371.187 352.445 365.033 361.328 359.264 365.953C360.848 361.103 365.228 357.518 367.792 353.212C370.246 349.09 372.293 345.105 374.868 340.992C380.76 331.581 386.621 323.31 391.426 313.193C394.508 306.795 396.788 300.04 398.214 293.082C399.631 286.173 401.932 254.035 399.739 247.851Z"/><path fill="#FE9DCE" d="M211.395 288.616C206.115 263.228 208.109 227.461 221.074 204.455C223.617 199.943 237.12 196.219 242.254 195.578C236.517 203.976 218.796 204.808 217.484 218.074L216.539 219.022C217.001 223.721 224.084 227.546 227.158 232.416C225.329 233.915 224.484 234.16 222.25 234.732C221.922 235.658 220.068 241.708 220.296 241.501C216.009 245.403 216.511 244.162 214.684 250.208C210.96 262.528 213.406 274.287 211.626 286.371C211.491 287.288 211.431 287.683 211.395 288.616Z"/><path fill="#F9F8F8" d="M386.573 239.44C385.571 237.048 384.132 234.358 384.455 231.859C385.754 230.089 385.015 230.567 387.259 230.12C391.845 231.163 394.559 233.732 397.889 236.866C398.128 241.547 397.96 244.537 396.808 249.056C392.825 253.997 391.412 253.935 388.383 257.35C382.825 258.687 370.711 261.517 367.496 255.642C379.566 256.779 384.048 250.018 386.573 239.44Z"/><path fill="#FE9DCE" d="M399.338 203.123C401.42 203.122 408.525 202.751 409.775 204.454C412.775 208.539 413.222 217.791 409.264 221.534C406.451 224.194 396.978 222.446 393.652 221.194L393.436 220.263C390.565 218.476 384.924 217.838 381.584 217.746L380.867 216.693C386.073 214.571 393.733 217.477 398.675 219.188C400.154 212.473 400.36 209.893 399.338 203.123Z"/><path fill="#FECCC8" d="M364.144 224.599C370.7 220.98 374.28 219.448 381.584 217.746C384.924 217.838 390.565 218.476 393.436 220.263L393.652 221.194C380.758 220.828 374.575 222.638 363.446 229.152C363.505 228.108 363.96 225.741 364.144 224.599Z"/><path fill="#FE9DCE" d="M355.905 237.111C353.792 231.57 358.988 226.225 363.554 223.822L364.144 224.599C363.96 225.741 363.505 228.108 363.446 229.152C360.753 231.772 358.197 234.119 355.905 237.111Z"/><path fill="#975699" d="M380.867 216.693L381.584 217.746C374.28 219.448 370.7 220.98 364.144 224.599L363.554 223.822C370.586 219.005 372.578 218.678 380.867 216.693Z"/><path fill="#4F467E" d="M396.808 249.056L397.877 249.781C396.142 252.293 391.913 257.886 388.383 257.35C391.412 253.935 392.825 253.997 396.808 249.056Z"/><path fill="#FA7BA6" d="M287.55 329.851C290.797 329.941 295.012 330.032 298.044 328.943C314.576 323.003 328.948 319.334 345.974 326.133C349.23 327.433 357.732 329.736 358.445 333.561C355.736 335.494 352.683 336.761 350.763 338.151C348.639 341.93 342.947 352.115 339.3 354.469C330.412 361.75 316.497 366.515 307.536 356.638C302.872 352.237 304.093 344.303 301.814 338.433C299.802 337.87 297.564 337.104 295.548 336.467C292.817 335.693 288.005 333.632 285.985 331.605L286.003 330.514L287.55 329.851Z"/><path fill="#FA7BA6" d="M350.763 338.151C348.639 341.93 342.947 352.115 339.3 354.469C330.412 361.75 316.497 366.515 307.536 356.638C302.872 352.237 304.093 344.303 301.814 338.433C314.577 339.537 338.404 341.377 350.763 338.151Z"/><path fill="#CE6EC8" d="M307.536 356.638C309.183 355.821 318.869 358.131 322.564 357.873C328.651 357.446 333.616 354.04 339.3 354.469C330.412 361.75 316.497 366.515 307.536 356.638Z"/><defs><linearGradient id="gradient_0" gradientUnits="userSpaceOnUse" x1="321.90958" y1="330.55786" x2="323.21375" y2="340.48798"><stop offset="0" stop-color="#722761"/><stop offset="1" stop-color="#C03C74"/></linearGradient></defs><path fill="url(#gradient_0)" d="M294.652 332.132C308.897 337.48 323.758 336.905 338.76 335.231C344.661 334.572 352.693 332.252 358.445 333.561C355.736 335.494 352.683 336.761 350.763 338.151C338.404 341.377 314.577 339.537 301.814 338.433C299.802 337.87 297.564 337.104 295.548 336.467C294.716 334.516 294.588 334.24 294.652 332.132Z"/><path fill="#4B3877" d="M287.55 329.851C289.745 330.443 292.695 331.119 294.652 332.132C294.588 334.24 294.716 334.516 295.548 336.467C292.817 335.693 288.005 333.632 285.985 331.605L286.003 330.514L287.55 329.851Z"/><path fill="#FE9DCE" d="M317.313 305.038C315.158 303.589 313.761 301.696 313.038 299.22C314.875 294.1 326.151 296.064 330.665 296.732C333.752 297.281 342.237 299.392 344.486 298.336C342.065 301.644 335.398 306.782 335.26 308.043L335.764 308.434C331.427 309.986 322.487 306.199 317.726 305.128L317.313 305.038Z"/><path fill="#FA7BA6" d="M317.313 305.038C315.158 303.589 313.761 301.696 313.038 299.22C314.875 294.1 326.151 296.064 330.665 296.732L330.166 298.089C327.442 298.657 327.671 298.148 326.255 299.898L327.443 302.468C326.096 304.895 321.596 304.134 318.877 304.086L317.313 305.038Z"/><path fill="#CD3A7F" d="M318.877 304.086C317.601 303.197 317.507 303.056 316.513 301.838L316.884 300.799C319.427 299.696 323.37 299.93 326.255 299.898L327.443 302.468C326.096 304.895 321.596 304.134 318.877 304.086Z"/><path fill="#FA7BA6" d="M340.103 273.498C345.738 278.625 354.066 285.177 354.31 293.256C354.656 304.658 344.511 307.053 335.764 308.434L335.26 308.043C335.398 306.782 342.065 301.644 344.486 298.336C347.242 288.46 343.718 282.779 340.103 273.498Z"/><path fill="#FA7BA6" d="M356.972 213.643L357.301 213.988C356.924 216.457 350.189 224.268 348.363 227.579C344.391 234.782 343.182 239.978 340.97 247.68C340.395 246.367 340.364 245.169 340.445 243.771C341.255 229.856 347.289 222.49 356.972 213.643Z"/><path fill="#4B3877" d="M264.23 208.747C275.211 209.859 282.376 214.105 289.76 222.232C280.122 215.429 275.588 212.161 263.982 209.578L264.23 208.747Z"/><path fill="#CE6EC8" d="M263.982 209.578C261.616 209.62 258.895 209.926 256.876 208.833L257.714 208.229C260.725 208.034 261.266 208.118 264.23 208.747L263.982 209.578Z"/><path fill="#FE9DCE" d="M156.034 157.285C161.092 126.922 174.931 88.0052 198.625 67.7261C218.874 50.395 260.214 31.3121 287.35 33.8131C298.512 34.8419 317.227 39.8906 324.583 48.2465L324.345 49.0992C320.47 50.1894 319.218 47.576 311.058 48.4687L311.153 49.0967C315.915 50.744 321.84 50.7183 323.978 53.3499C332.343 56.6483 334.435 58.0161 341.292 63.8788C329.267 62.8129 317.786 65.4956 308.353 73.3464C306.659 74.7779 304.996 76.2451 303.365 77.7469C309.226 74.8372 316.594 71.1204 323.035 70.0593C331.809 68.6142 348.119 67.6402 352.629 77.1418C353.905 79.8314 354.92 86.8975 355.431 90.0962C357.92 110.879 348.791 131.992 336.152 148.02C322.237 165.667 308.862 174.677 287.613 181.891C290.211 179.036 292.475 176.585 294.821 173.499C303.258 155.644 312.1 135.68 316.671 116.503C298.897 143.118 279.894 166.989 251.147 183.396C244.297 187.305 233.8 190.449 226.097 193.461C230.615 183.69 236.775 172.893 240.666 163.376L237.092 162.271L236.921 160.278C228.453 167.107 206.971 182.767 195.913 183.983C195.52 183.717 194.775 183.26 194.479 182.946C193.619 183.523 192.748 184.093 191.913 184.706C190.188 189.442 188.328 193.354 185.896 197.787L185.247 199.359C176.06 186.743 170.89 181.533 156.63 175.489L153.844 174.657C145.061 172.944 144.441 172.319 135.728 174.436L138.627 165.982C142.91 165.221 150.423 165.017 154.998 164.767C155.392 162.28 155.737 159.786 156.034 157.285Z"/><path fill="#FE9DCE" d="M156.034 157.285C161.092 126.922 174.931 88.0052 198.625 67.7261C218.874 50.395 260.214 31.3121 287.35 33.8131C298.512 34.8419 317.227 39.8906 324.583 48.2465L324.345 49.0992C320.47 50.1894 319.218 47.576 311.058 48.4687L311.153 49.0967C315.915 50.744 321.84 50.7183 323.978 53.3499C315.985 51.3519 309.181 51.163 301.061 51.8027C237.759 63.7992 213.782 129.527 194.479 182.946C193.619 183.523 192.748 184.093 191.913 184.706C190.188 189.442 188.328 193.354 185.896 197.787L185.247 199.359C176.06 186.743 170.89 181.533 156.63 175.489L153.844 174.657C145.061 172.944 144.441 172.319 135.728 174.436L138.627 165.982C142.91 165.221 150.423 165.017 154.998 164.767C155.392 162.28 155.737 159.786 156.034 157.285Z"/><defs><linearGradient id="gradient_1" gradientUnits="userSpaceOnUse" x1="273.61963" y1="132.03171" x2="181.52888" y2="103.87465"><stop offset="0" stop-color="#9F52B5"/><stop offset="1" stop-color="#C363C5"/></linearGradient></defs><path fill="url(#gradient_1)" d="M165.603 173.721C189.208 162.577 197.801 146.883 210.506 125.57C225.514 100.391 243.787 74.2718 269.78 59.5518C279.006 54.3271 290.876 48.5236 301.334 47.0693C300.849 49.2553 300.879 49.5984 301.061 51.8027C237.759 63.7992 213.782 129.527 194.479 182.946C193.619 183.523 192.748 184.093 191.913 184.706C190.188 189.442 188.328 193.354 185.896 197.787L185.247 199.359C176.06 186.743 170.89 181.533 156.63 175.489C158.863 174.118 162.937 173.974 165.603 173.721Z"/><path fill="#6C44A4" d="M185.896 197.787C185.862 194.984 189.352 185.995 191.913 184.706C190.188 189.442 188.328 193.354 185.896 197.787Z"/><path fill="#AA61D7" d="M156.034 157.285L156.823 158.782C167.118 151.22 175.054 145.856 183.663 135.64C186.755 131.972 188.994 128.104 192.162 124.396C187.147 139.712 172.198 156.56 159.64 166.732C155.778 169.555 155.622 170.225 153.844 174.657C145.061 172.944 144.441 172.319 135.728 174.436L138.627 165.982C142.91 165.221 150.423 165.017 154.998 164.767C155.392 162.28 155.737 159.786 156.034 157.285Z"/><path fill="#6C44A4" d="M301.334 47.0693C309.485 46.0788 316.549 45.59 324.345 49.0992C320.47 50.1894 319.218 47.576 311.058 48.4687L311.153 49.0967C315.915 50.744 321.84 50.7183 323.978 53.3499C315.985 51.3519 309.181 51.163 301.061 51.8027C300.879 49.5984 300.849 49.2553 301.334 47.0693Z"/><path fill="#E684D2" d="M153.844 174.657C155.622 170.225 155.778 169.555 159.64 166.732C159.468 169.859 158.935 170.353 160.169 172.753C162.185 173.74 163.367 173.641 165.603 173.721C162.937 173.974 158.863 174.118 156.63 175.489L153.844 174.657Z"/><path fill="#AA61D7" d="M355.431 90.0962C357.92 110.879 348.791 131.992 336.152 148.02C322.237 165.667 308.862 174.677 287.613 181.891C290.211 179.036 292.475 176.585 294.821 173.499L296.008 173.814C299.427 172.458 303.256 169.541 306.491 167.627C327.326 155.082 342.938 133.511 350.659 110.659C352.573 104.993 352.663 94.3801 355.431 90.0962Z"/><path fill="#4B3877" d="M236.921 160.278C240.147 157.455 243.677 153.291 246.155 149.767C244.914 152.873 242.021 160.76 240.666 163.376L237.092 162.271L236.921 160.278Z"/><defs><linearGradient id="gradient_2" gradientUnits="userSpaceOnUse" x1="82.73526" y1="425.73712" x2="243.49565" y2="441.93787"><stop offset="0" stop-color="#DD7ACC"/><stop offset="1" stop-color="#FFAFD6"/></linearGradient></defs><path fill="url(#gradient_2)" d="M102.857 309.807C113.097 319.656 117.574 321.024 130.834 325.826C128.477 336.259 127.282 348.608 127.661 359.293C127.792 362.963 129.065 379.346 130.787 382.186C131.435 380.311 131.404 379.296 131.535 377.347C130.478 368.398 137.313 336.5 139.342 327.684C150.29 329.958 160.114 328.446 170.683 325.377C170.664 329.693 170.78 334.17 170.831 338.501C173.438 356.443 177.818 369.904 186.943 385.412C207.749 420.77 243.471 444.874 239.967 490.54C238.688 507.216 234.434 521.377 221.679 533.061C225.068 525.966 228.137 518.204 227.698 510.227C225.96 478.653 202.38 447.84 184.346 423.71C187.99 431.828 192.37 439.585 196.093 447.67C206.801 470.925 213.01 498.292 203.589 523.052C197.337 539.482 185.009 549.469 168.047 553.234C177.324 544.683 182.276 537.679 183.044 524.472L183.115 522.089C183.103 520.072 183.048 518.056 182.951 516.041C181.825 495.031 167.419 472.05 151.16 459.893C121.561 437.764 104.079 421.459 102.013 381.511L100.652 377.747C98.8589 387.575 99.2411 395.055 100.097 405.025C103.538 421.938 106.715 433.082 118.758 445.769C113.332 443.308 106.444 440.364 101.876 436.498C68.126 412.332 73.4958 363.985 90.6955 331.484C93.92 323.573 98.2389 316.919 102.857 309.807Z"/><defs><linearGradient id="gradient_3" gradientUnits="userSpaceOnUse" x1="189.39334" y1="387.96036" x2="126.66991" y2="364.00616"><stop offset="0" stop-color="#A752B2"/><stop offset="1" stop-color="#D975CB"/></linearGradient></defs><path fill="url(#gradient_3)" d="M139.342 327.684C150.29 329.958 160.114 328.446 170.683 325.377C170.664 329.693 170.78 334.17 170.831 338.501C164.043 342.607 157.485 354.667 155.813 362.37C149.512 391.393 159.732 413.229 175.332 436.686C157.621 425.045 139.004 405.745 134.016 384.361C133.208 380.895 134.028 379.42 131.535 377.347C130.478 368.398 137.313 336.5 139.342 327.684Z"/><path fill="#FE9DCE" d="M90.6955 331.484L93.5993 328.769C94.4412 330.693 89.6233 353.12 89.0121 357.484C87.1889 370.503 86.4344 404.722 93.657 415.114C95.6816 420.498 103.924 432.252 101.876 436.498C68.126 412.332 73.4958 363.985 90.6955 331.484Z"/><path fill="#CE6EC8" d="M99.2377 404.799C97.9313 399.566 97.2695 373.982 101.585 370.512C103.928 372.768 103.33 391.101 104.808 396.586C108.38 409.842 112.433 420.503 120.786 431.535C123.663 427.131 117.017 418.158 115.07 413.476C110.408 402.257 111.84 387.266 113.609 375.608L114.114 376.162C108.732 412.068 120.871 434.107 150.01 453.473C172.241 468.247 189.026 486.718 189.284 514.741C186.318 514.781 185.954 514.282 183.935 515.69C183.398 518.152 183.587 520.205 183.115 522.089C183.103 520.072 183.048 518.056 182.951 516.041C181.825 495.031 167.419 472.05 151.16 459.893C121.561 437.764 104.079 421.459 102.013 381.511L100.652 377.747C98.8589 387.575 99.2411 395.055 100.097 405.025L99.2377 404.799Z"/><path fill="#4B3877" d="M100.652 377.747C100.763 376.299 100.699 375.192 101.421 373.953C102.225 377.16 102.13 378.167 102.013 381.511L100.652 377.747Z"/><path fill="#AA61D7" d="M99.2377 404.799L100.097 405.025C103.538 421.938 106.715 433.082 118.758 445.769C113.332 443.308 106.444 440.364 101.876 436.498C103.924 432.252 95.6816 420.498 93.657 415.114L94.2101 414.865C96.4964 419.074 97.914 422.522 100.543 426.676L101.73 426.778C102.449 426.025 103.742 424.293 103.434 423.251C101.581 416.982 99.6093 412.134 99.2682 405.462L99.2377 404.799Z"/><path fill="#E684D2" d="M189.284 514.741C189.043 518.093 189.553 518.353 187.904 520.739C185.22 521.998 184.28 521.997 183.044 524.472L183.115 522.089C183.587 520.205 183.398 518.152 183.935 515.69C185.954 514.282 186.318 514.781 189.284 514.741Z"/><defs><linearGradient id="gradient_4" gradientUnits="userSpaceOnUse" x1="347.04407" y1="387.30511" x2="450.77112" y2="510.19467"><stop offset="0" stop-color="#593387"/><stop offset="1" stop-color="#7549AC"/></linearGradient></defs><path fill="url(#gradient_4)" d="M424.767 330.566C425.576 330.452 426.059 330.769 426.773 331.104C428.28 336.172 427.723 342.27 428.202 347.56C428.892 354.845 430.093 362.072 431.797 369.188C440.014 404.684 462.02 439.694 453.389 477.279C448.092 500.348 436.164 515.219 416.469 527.617C419.04 525.058 421.535 522.513 423.607 519.518C433.831 504.744 436.072 486.113 432.813 468.711C430.019 453.794 423.207 443.779 410.778 435.232C417.498 447.123 421.205 459.699 422.634 473.255C424.948 495.194 417.38 510.015 403.886 526.681C398.47 532.685 392.64 538.375 387.816 544.886C380.514 554.741 378.554 564.257 380.338 576.288C378.704 574.336 377.011 572.275 375.681 570.096C361.465 546.795 382.988 527.594 390.686 506.858C406.086 465.371 365.178 428.321 376.334 380.986C378.139 379.359 380.176 377.652 381.569 375.645C383.773 372.467 385.473 365.066 388.989 363.546C392.555 365.978 394.305 380.71 396.313 385.912C398.959 392.771 403.105 398.767 407.158 404.844C402.89 385.543 399.167 356.768 403.798 337.597C410.802 335.296 417.791 332.952 424.767 330.566Z"/><path fill="#FECCC8" d="M221.62 360.608C239.58 380.543 276.981 416.421 303.92 419.115C302.283 427.2 301.606 434.333 300.148 441.916C300.054 448.514 299.861 468.864 309.313 469.412C309.865 464.212 310.192 460.603 310.2 455.392C322.766 463.762 328.37 474.669 318.825 488.276C318.362 488.933 317.888 489.583 317.403 490.224C312.667 496.088 308.27 501.413 304.064 507.692C292.025 492.231 280.276 480.31 264.623 468.314C261.294 464.986 249.624 459.795 247.322 456.193C241.158 446.547 236.38 435.8 229.691 426.203C223.676 418.78 217.709 411.32 211.788 403.823C216.399 387.933 217.879 375.849 221.62 360.608Z"/><path fill="#FE9DCE" d="M221.62 360.608C239.58 380.543 276.981 416.421 303.92 419.115C302.283 427.2 301.606 434.333 300.148 441.916L300.024 438.35C299.143 436.979 296.845 436.293 295.214 435.71C273.586 427.981 256.351 412.654 238.573 398.407C227.872 408.137 231.252 413.24 229.762 425.634L229.691 426.203C223.676 418.78 217.709 411.32 211.788 403.823C216.399 387.933 217.879 375.849 221.62 360.608Z"/><path fill="#FE9DCE" d="M309.313 469.412C309.865 464.212 310.192 460.603 310.2 455.392C322.766 463.762 328.37 474.669 318.825 488.276C318.362 488.933 317.888 489.583 317.403 490.224C315.523 486.222 313.432 471.967 309.313 469.412Z"/><path fill="#CE6EC8" d="M194.479 182.946C194.775 183.26 195.52 183.717 195.913 183.983C206.971 182.767 228.453 167.107 236.921 160.278L237.092 162.271C222.813 184.357 206.605 216.353 201.657 242.238C200.355 249.049 200.249 258.941 200.486 265.937C203.988 292.688 211.36 319.299 210.735 346.286C210.337 363.45 205.577 379.345 203.547 395.705C187.243 374.73 175.653 348.635 179.054 321.533L179.092 321.237C192.563 304.566 198.079 289.841 199.516 268.097C200.452 244.323 196.425 220.48 185.247 199.359L185.896 197.787C188.328 193.354 190.188 189.442 191.913 184.706C192.748 184.093 193.619 183.523 194.479 182.946Z"/><defs><linearGradient id="gradient_5" gradientUnits="userSpaceOnUse" x1="135.90631" y1="245.94977" x2="93.204384" y2="258.00339"><stop offset="0" stop-color="#46B6D5"/><stop offset="1" stop-color="#3D63A2"/></linearGradient></defs><path fill="url(#gradient_5)" d="M109.088 203.359C133.76 205.8 139.622 253.206 136.966 271.907C135.288 283.716 133.6 296.484 121.009 301.023C110.679 299.639 102.721 291.242 99.1922 281.614C92.0047 262.005 88.5251 236.424 95.8092 216.353C98.3729 209.289 102.545 206.06 109.088 203.359Z"/><path fill="#3A2C65" d="M107.901 210.057C128.58 208.849 139.174 283.484 118.153 295.14C98.1287 292.303 93.6588 245.006 96.2241 229.487C97.2734 223.14 98.6703 219.165 101.935 213.718L107.901 210.057Z"/><defs><linearGradient id="gradient_6" gradientUnits="userSpaceOnUse" x1="110.05557" y1="496.8924" x2="114.32754" y2="441.45804"><stop offset="0" stop-color="#A95ECB"/><stop offset="1" stop-color="#8355C0"/></linearGradient></defs><path fill="url(#gradient_6)" d="M77.4791 437.869C84.3819 437.74 130.877 461.641 140.51 466.937C156.772 475.878 164.732 485.849 169.918 503.692C162.594 501.083 155.438 497.974 148.115 495.327C128.184 486.888 107.564 476.541 86.2306 472.176C74.5905 469.795 62.7677 470.727 52.6975 477.387C52.9544 472.993 53.2295 468.785 54.479 464.539C58.2305 451.79 66.018 444.136 77.4791 437.869Z"/><path fill="#6C44A4" d="M443.111 320.227C444.567 321.998 445.691 334.255 446.464 337.419C447.888 343.057 449.7 348.592 451.885 353.981C457.322 367.076 468.423 378.839 476.812 390.243C488.901 406.68 497.75 423.976 494.541 444.88C492.312 459.399 483.219 473.117 471.443 481.727L470.756 481.894C470.504 479.753 476.149 471.814 477.137 469.117C480.622 459.833 481.594 449.793 479.954 440.013C474.858 410.077 450.973 391.672 439.337 365.063C434.542 354.097 433.134 341.211 431.002 329.49C435.084 326.462 439.121 323.374 443.111 320.227Z"/><path fill="#6C44A4" d="M369.409 84.265C371.276 84.2985 372.765 84.8218 374.267 85.959C374.425 87.3529 393.405 106.663 396.116 110.73C413.861 137.343 422.587 165.858 427.678 196.641C413.356 177.486 399.989 157.635 387.627 137.161C377.656 120.362 372.129 106.765 360.001 91.5355C361.394 92.2444 362.024 92.4472 363.517 92.9353C363.288 88.9023 365.733 85.7031 369.409 84.265Z"/><path fill="#FE9DCE" d="M87.2125 275.959C90.3531 284.716 92.2838 290.736 96.1341 299.301C80.575 332.749 36.7491 358.756 49.8104 401.971C51.1232 406.315 55.4469 413.618 56.2057 416.901C5.67866 370.503 71.0241 321.061 87.2125 275.959Z"/><path fill="#4F467E" d="M129.366 183.909C132.783 183.893 143.465 182.386 145.496 182.913C176.24 190.883 185.577 238.636 182.508 265.335C176.604 265.998 168.465 266.403 162.526 266.026C162.617 261.345 162.41 256.663 161.908 252.009C159.918 232.24 156.57 211.016 142.769 195.573C139.738 192.181 133.09 186.955 129.366 183.909Z"/><path fill="#49BAD9" d="M336.195 28.7936C313.225 23.1968 293.155 20.8602 269.319 23.2677C218.718 28.3785 168.592 59.1092 149.283 107.561C147.191 112.811 144.268 125.818 140.463 129.138C138.409 128.995 139.214 129.269 137.372 127.626C135.644 123.114 137.836 118.733 139.261 114.426C153.378 71.7435 189.634 38.9881 231.579 23.9824C263.894 12.4219 309.103 15.4746 341.271 27.4587C347.258 29.3205 354.734 32.7819 360.291 35.7496C356.327 35.231 338.522 30.5267 336.195 28.7936Z"/><path fill="#447BD2" d="M336.195 28.7936L336.51 28.3421C338.922 27.8252 341.94 30.1705 344.674 29.992L341.271 27.4587C347.258 29.3205 354.734 32.7819 360.291 35.7496C356.327 35.231 338.522 30.5267 336.195 28.7936Z"/><path fill="#6C44A4" d="M369.409 84.265C365.638 80.7233 365.991 75.9156 361.776 72.1508C358.398 69.133 357.962 64.9048 362.936 62.8839C367.492 62.5404 382.091 71.6436 386.344 74.6414C414.583 94.5479 429.543 123.053 432.86 157.207L431.19 157.885C431.065 157.434 430.928 156.986 430.777 156.542C422.491 131.869 397.786 97.824 374.267 85.959C372.765 84.8218 371.276 84.2985 369.409 84.265Z"/><path fill="#6C44A4" d="M314.589 439.984C314.448 436.212 313.475 424.178 315.24 421.723C317.17 420.85 318.85 421.338 320.766 422.032C336.4 427.698 368.216 450.359 369.884 468.041C368.459 470.111 368.209 471.147 368.605 473.577C366.115 472.47 366.877 469.592 365.447 467.74C361.936 463.193 346.729 455.492 341.814 454.181C340.536 452.798 338.245 450.18 336.929 449.038C337.823 453.163 340.387 467.092 337.247 470.198C335.084 466.874 334.7 463.033 333.135 459.417C329.264 450.471 322.076 445.515 314.589 439.984Z"/><path fill="#4B3877" d="M162.526 266.026C168.465 266.403 176.604 265.998 182.508 265.335C181.089 280.39 175.708 318.28 155.832 318.592C154.03 318.62 152.472 318.376 151.117 317.11C149.882 314.539 151.266 310.008 152.231 307.488C158.154 292.022 162.892 282.893 162.526 266.026Z"/><path fill="#49BAD9" d="M332.577 517.219C333.783 517.727 336.034 518.502 336.792 519.567C338.77 522.342 348.008 601.676 347.02 605.684C346.562 607.545 345.407 607.93 343.922 608.863C342.066 608.323 341.069 607.866 339.626 606.539C337.396 601.823 329.433 530.402 329.466 522.721C329.478 520.109 330.806 518.933 332.577 517.219Z"/><path fill="#49BAD9" d="M105.012 198.932C110.137 194.87 112.423 192.796 119.621 193.498C125.805 194.1 132.49 199.759 135.942 204.816C149.128 224.132 152.645 246.048 152.486 268.598C149.994 268.132 147.621 267.696 145.111 267.338C144.79 265.531 144.57 263.696 143.742 262.04C142.823 242.293 137.056 204.619 112.364 199.319C110.733 198.969 106.852 198.982 105.012 198.932Z"/><path fill="#6C44A4" d="M405.127 84.4152C394.717 73.1999 382.8 64.5447 368.083 60.0894C362.959 58.5382 331.575 48.3093 335.359 40.2367C339.524 39.335 352.775 42.3686 357.115 43.5641C376.041 48.7769 396.956 65.7758 406.506 82.8416L405.127 84.4152Z"/><path fill="#49BAD9" d="M265.722 514.653C266.883 514.74 268.248 514.752 269.354 515.113C270.621 515.527 271.563 516.688 272.146 517.851C274.631 522.801 281.886 580.147 282.432 588.949C282.564 591.074 282.474 592.842 281.807 594.872C279.713 594.823 277.906 594.764 275.906 594.067C275.325 593.507 274.986 593.145 274.769 592.345C271.886 581.736 271.233 569.26 269.688 558.312C267.909 545.714 264.854 532.092 264.503 519.442C264.452 517.58 264.823 516.271 265.722 514.653Z"/><path fill="#408BBB" d="M442.604 205.943C447.239 209.386 449.592 213.047 450.398 218.897C454.774 250.633 443.422 291.348 425.997 317.19C425.495 317.521 423.98 318.248 423.366 318.561L422.493 318.053C422.878 314.229 431.466 300.261 433.324 295.146C444.511 264.341 446.731 237.667 442.604 205.943Z"/><path fill="#408BBB" d="M143.742 262.04C144.57 263.696 144.79 265.531 145.111 267.338C147.621 267.696 149.994 268.132 152.486 268.598C152.765 280.363 149.372 296.494 141.9 306.017C138.899 309.843 129.262 314.481 125.256 310.858C125.411 308.138 129.994 307.385 133.281 303.787C143.003 293.143 143.813 275.329 143.742 262.04Z"/><path fill="#6C44A4" d="M283.951 601.608L285.011 601.598C287.484 604.324 287.843 611.553 288.267 615.187C288.688 618.799 290.082 627.195 287.753 630.139C285.706 631.508 283.039 631.309 280.66 631.382C274.853 626.124 275.153 609.757 274.399 602.267L283.951 601.608Z"/><path fill="#FE9DCE" d="M294.499 158.489C294.28 163.211 284.5 179.601 281.128 183.612C275.98 182.979 271.97 182.934 266.766 182.862L266.192 182.07C275.565 174.877 284.365 166.207 294.499 158.489Z"/><path fill="#4B3877" d="M357.791 411.929C359.554 413.212 360.426 415.362 361.324 417.285C364.339 423.746 366.176 430.773 368.864 437.377C371.447 443.722 375.283 449.88 376.908 456.543C376.816 456.494 376.718 456.455 376.633 456.395C375.591 455.67 374.531 453.598 373.714 452.52C364.965 440.977 359.517 426.265 357.791 411.929Z"/><path fill="#49BAD9" d="M126.48 135.526C127.396 135.721 128.522 136.054 129.448 136.303C131.53 139.602 128.023 153.616 127.089 158.304L126.612 158.676L125.523 158.533C122.877 154.96 124.918 139.824 126.48 135.526Z"/><path d="M452.209 401.843C456.96 408.066 462.174 416.895 465.235 424.083C463.934 424.319 461.293 424.699 460.198 425.202C458.487 417.973 454.877 408.826 452.209 401.843Z"/><path fill="#AA61D7" d="M218.542 506.547C219.028 508.186 219.039 510.136 218.978 511.832C218.678 520.117 214.64 529.723 208.458 535.28C208.456 532.396 212.957 527.407 214.147 524.411C216.405 518.725 216.961 512.431 218.542 506.547Z"/><path fill="#4B3877" d="M406.506 82.8416C409.019 86.014 411.073 88.73 413.378 92.0557C409.345 89.1451 408.413 88.1555 405.127 84.4152L406.506 82.8416Z"/><path fill="#4B3877" d="M432.86 157.207C433.832 160.112 434.278 165.717 434.555 168.933C433.355 165.275 432.233 161.591 431.19 157.885L432.86 157.207Z"/><defs><linearGradient id="gradient_7" gradientUnits="userSpaceOnUse" x1="875.32739" y1="342.82477" x2="992.53857" y2="404.48386"><stop offset="0" stop-color="#6565CE"/><stop offset="1" stop-color="#457BD2"/></linearGradient></defs><path fill="url(#gradient_7)" d="M964.211 281.176C965.686 280.863 968.59 280.867 970.178 280.88C998.763 280.878 1015.19 302.742 1013.58 330.071C1012.21 353.563 1010.13 379.496 996.669 399.466C981.087 422.588 953.608 429.218 928.532 419.08C926.969 429.428 925.262 452.25 922.536 461.241C920.081 466.155 915.372 466.827 910.311 466.789C902.661 466.731 887.708 469.121 881.607 463.662C879.621 455.587 884.462 427.355 885.725 417.946L892.938 362.463C896.076 339.446 898.683 316.515 901.849 293.343C902.371 278.529 922.468 283.821 932.179 282.982C936.005 282.652 939.366 285.356 941.628 288.034C949.921 283.301 954.921 282.356 964.211 281.176ZM948.785 382.111C955.173 380.22 959.822 376.67 963.091 370.804C968.241 361.565 971.25 337.139 968.234 327.007C967.395 324.187 965.908 321.551 963.209 320.161C960.577 318.806 957.088 318.996 954.215 319.153C949.393 320.229 944.791 322.205 942.039 326.549C938.423 332.256 932.848 370.762 934.331 377.672C934.72 379.483 935.981 381.049 937.563 381.988C940.765 383.889 945.34 382.785 948.785 382.111Z"/><defs><linearGradient id="gradient_8" gradientUnits="userSpaceOnUse" x1="886.04199" y1="308.41879" x2="970.75012" y2="414.4697"><stop offset="0" stop-color="#C3D8E0"/><stop offset="1" stop-color="#86FAEB"/></linearGradient></defs><path fill="url(#gradient_8)" d="M961.418 286.548C996.588 283.148 1010.19 303.325 1007.88 336.646C1006.15 359.916 1002.68 388.759 984.333 405.46C968.948 419.466 939.074 424.655 923.987 407.841C923.285 419.436 921.278 432.501 919.736 444.141C918.955 450.01 918.261 454.844 917.03 460.621C909.819 462.608 894.15 461.88 886.188 461.665C885.889 453.663 887.843 440.48 888.925 432.358L893.464 397.58L901.429 337.423C902.635 327.831 905.189 297.259 908.492 289.669C913.987 286.815 922.894 288.013 928.825 287.89C939.698 287.665 935.804 291.543 939.888 295.147L939.123 294.754C941.227 295.229 941.847 293.814 943.789 292.596C949.432 289.054 954.906 287.65 961.418 286.548ZM948.785 382.111C955.173 380.22 959.822 376.67 963.091 370.804C968.241 361.565 971.25 337.139 968.234 327.007C967.395 324.187 965.908 321.551 963.209 320.161C960.577 318.806 957.088 318.996 954.215 319.153C949.393 320.229 944.791 322.205 942.039 326.549C938.423 332.256 932.848 370.762 934.331 377.672C934.72 379.483 935.981 381.049 937.563 381.988C940.765 383.889 945.34 382.785 948.785 382.111Z"/><path fill="#447BD2" d="M955.17 313.774C958.792 313.52 962.678 313.776 965.908 315.592C969.995 317.891 972.551 321.895 973.747 326.35C976.722 337.435 973.342 365.398 967.361 375.266C963.565 381.53 956.371 385.836 949.375 387.497C945.662 388.123 941.485 388.645 937.776 387.765C933.095 386.654 930.875 383.866 928.473 379.911C928.115 371.22 932.076 339.136 934.284 330.579C935.08 327.494 936.336 324.418 938.293 321.882C942.548 316.369 948.558 314.544 955.17 313.774ZM948.785 382.111C955.173 380.22 959.822 376.67 963.091 370.804C968.241 361.565 971.25 337.139 968.234 327.007C967.395 324.187 965.908 321.551 963.209 320.161C960.577 318.806 957.088 318.996 954.215 319.153C949.393 320.229 944.791 322.205 942.039 326.549C938.423 332.256 932.848 370.762 934.331 377.672C934.72 379.483 935.981 381.049 937.563 381.988C940.765 383.889 945.34 382.785 948.785 382.111Z"/><path fill="#447BD2" d="M1192.88 283.035C1201.63 282.832 1213.64 281.164 1222.01 283.805C1224.78 284.68 1226.42 286.286 1227.19 289.116C1229.03 295.794 1226.8 304.829 1225.91 311.671C1224.54 322.148 1216.24 370.196 1220.14 377.004C1220.9 378.336 1221.93 379.261 1223.45 379.644C1226.43 380.401 1231.36 378.424 1233.8 376.781C1236.76 374.792 1238.73 371.571 1239.86 368.234C1242.14 361.449 1242.52 352.805 1243.41 345.67C1245.75 326.911 1247.11 307.391 1250.86 288.889C1257.2 280.755 1262.67 283.163 1271.86 282.86C1276.8 282.696 1281.43 282.461 1286.33 283.398C1294.31 284.926 1293.24 289.932 1293.08 296.56C1292.28 305.283 1290.85 314.374 1289.75 323.095C1287.55 341.801 1285.09 360.475 1282.37 379.112C1280.37 393.569 1277.69 423.625 1273.17 436.306C1271.17 441.578 1268.36 446.51 1264.86 450.928C1255.13 462.999 1240.76 469.317 1224.94 470.928C1209.65 471.94 1188.89 471.567 1175.16 464.716C1168.8 461.543 1174.96 429.569 1177.57 426.478C1182.97 420.074 1205.55 430.788 1213.94 429.998C1219.85 429.44 1224.9 430.031 1230.25 425.011C1232.91 422.897 1233.62 420.274 1233.79 417.312L1233.17 416.882C1229.67 417.921 1226.35 419.29 1222.91 420.513C1214.33 423.569 1201.16 421.542 1193.06 417.566C1185.06 413.643 1179.5 406.576 1176.71 398.206C1174.66 392.058 1173.92 385.532 1173.98 379.072C1174.09 369.431 1182.97 291.077 1185.45 286.885C1186.9 284.444 1190.38 283.722 1192.88 283.035Z"/><path fill="#85FCEC" d="M1195.77 288.047C1204.61 287.998 1213.76 287.526 1222.54 288.457C1222.8 307.421 1217.73 333.209 1215.18 352.52C1214.32 359.067 1212.27 367.43 1213.22 373.906C1213.74 377.424 1215.39 380.952 1218.29 383.108C1221.31 385.361 1224.79 385.755 1228.43 385.181C1235.4 384.082 1240.4 378.771 1243.29 372.611C1248.6 361.282 1251.45 323.641 1252.91 309.379C1253.54 303.185 1253.29 294.666 1257.11 289.541C1262.56 286.678 1274.73 287.811 1280.98 288.023C1283.23 288.099 1285.94 287.674 1287.5 289.352C1288.21 291.845 1288.24 294.321 1288.04 296.89C1287.51 303.765 1286.2 310.737 1285.31 317.583L1278.7 366.673C1275.69 388.839 1274.66 412.77 1268.15 434.147C1264.75 443.561 1257.6 453.237 1248.68 458.048C1232.33 466.857 1200.74 468.179 1183.43 462.842C1181.45 462.234 1178.42 460.948 1177.56 458.878C1175.68 454.322 1179.86 432.602 1181.67 427.91C1190.57 429.78 1198.91 433.315 1208.03 434.484C1215.79 435.478 1225.42 435.856 1231.85 430.729C1239.88 424.331 1239.94 412.854 1240.96 403.482C1235.1 409.389 1229.33 413.702 1221.02 415.577C1211.65 417.688 1200.74 416.228 1192.62 410.987C1185.89 406.641 1182.04 399.918 1180.42 392.186C1179.31 386.877 1179.16 381.406 1179.42 376.004C1179.91 366.002 1187.38 293.404 1189.97 289.446C1191.55 287.917 1193.7 288.127 1195.77 288.047Z"/><path fill="#7A52C3" d="M689.033 236.839C696.579 236.699 704.874 235.879 712.342 236.892C715.764 237.356 719.404 238.396 721.556 241.296C725.724 246.917 719.626 277.643 718.344 285.763C744.941 275.462 776.747 283.296 778.335 317.001C778.351 336.45 774.527 354.54 772.124 374.1C770.96 383.57 769.68 409.517 765.247 416.88C762.524 421.404 740.075 419.42 734.223 419.804C720.79 420.685 727.025 396.971 728.122 388.819C729.728 377.071 731.242 365.311 732.666 353.539C733.593 346.592 737.638 330.44 733.325 324.82C732.157 323.297 730.41 322.173 728.484 321.962C722.269 321.28 717.316 324.822 714.528 330.14C706.556 345.349 707.583 411.491 698.727 417.691C694.354 420.752 670.457 420.771 665.187 419.242C663.049 418.622 661.77 417.294 660.891 415.298C659.962 413.188 660.151 410.574 660.356 408.341C663.631 372.708 669.605 335.831 674.104 300.17C675.417 289.76 679.359 248.143 682.014 241.867C683.26 238.921 686.288 237.889 689.033 236.839Z"/><path fill="#FE9DCE" d="M687.78 242.321C693.259 242.204 714.094 241 717.497 243.719C718.798 250.531 712.576 285.376 711.822 295.841C724.252 287.113 740.475 284.12 755.233 289.279C762.284 291.744 768.125 298.518 770.824 305.391C772.775 310.358 772.762 318.449 772.716 323.86C771.23 336.061 764.292 405.924 761.265 413.076C757.641 416.171 736.736 414.904 731.213 414.81C730.797 407.052 732.725 394.143 733.713 386.157L738.657 347.059C739.349 335.773 745.47 320.944 730.652 316.869C723.853 314.764 711.426 321.093 709.271 327.946C703.152 347.396 703.113 369.771 699.747 389.927C698.356 398.26 698.096 406.254 696.285 414.413C690.767 415.38 670.984 414.947 665.011 414.585C665.066 407.988 666.602 398.427 667.505 391.734L672.274 355.755L681.45 283.644C682.45 275.822 684.966 248.178 687.78 242.321Z"/><path fill="#447BD2" d="M1143.04 449.17C1144.38 449.03 1145.76 448.903 1147.11 448.971C1150.18 449.126 1154.41 449.858 1156.46 452.398C1158.65 455.108 1158.82 459.861 1158.47 463.161C1157.27 474.613 1147.39 470.064 1141.42 475.593C1139.96 476.944 1139.42 478.616 1139.42 480.572C1142.27 484.095 1148.94 480.599 1152.39 484.214C1154.11 486.028 1154.38 489.763 1154.36 492.131C1154.32 495.824 1153.33 500.324 1150.54 502.961C1146.93 506.378 1139.98 505.199 1135.29 505.096C1135.08 512.275 1129.45 556.579 1126.6 560.311C1124.6 562.927 1120.52 564.049 1117.38 564.229C1112.91 564.486 1106.94 564.293 1103.49 561.162C1099.56 554.486 1107.61 515.586 1109.16 505.316C1108.22 504.826 1106.76 503.77 1105.79 503.547C1102.95 502.899 1097.46 504.864 1094.38 505.086C1091.76 505.276 1089.04 505.097 1086.42 504.939C1085.36 516.215 1083.89 527.869 1081.51 538.938C1084.37 538.802 1087.32 538.592 1090.17 538.813C1092.29 538.976 1094.34 539.673 1095.66 541.433C1097.74 544.197 1097.75 548.947 1097.31 552.215C1096.82 555.804 1095.2 559.368 1092.2 561.527C1087.04 565.244 1077.98 564.942 1071.9 563.939C1066.82 563.102 1062.22 560.778 1059.19 556.518C1052.54 547.161 1059.57 516.788 1061.44 505.454C1059.14 504.702 1057.01 503.387 1054.76 502.477C1049.2 517.133 1037.51 551.299 1028.72 562.524C1027.34 562.93 1025.95 563.263 1024.54 563.519C1018.79 564.537 1010.01 565.423 1004.99 561.801C1000.4 558.49 1000.15 553.458 999.334 548.309C998.296 541.393 997.301 534.471 996.348 527.544C994.333 535.994 990.338 544.97 986.711 552.874C984.545 557.592 981.789 561.932 976.638 563.681C972.76 564.997 960.576 564.721 957.047 562.874C954.404 561.491 953.19 557.526 952.391 554.848C949.686 545.78 942.828 498.779 943.096 490.238C943.174 487.755 944.248 485.739 945.393 483.585C945.684 483.445 945.976 483.305 946.272 483.175C949.778 481.64 952.959 480.856 956.741 480.366C960.328 479.901 964.323 480.245 967.245 482.599C973.743 487.834 973.724 511.01 974.783 519.662C978.096 509.224 982.452 497.28 987.693 487.678C989.316 484.703 990.942 482.125 994.37 481.174C998.532 480.019 1009.13 479.764 1012.87 482.04C1019.47 486.065 1019.43 510.668 1021.53 518.996C1022.88 511.107 1029.38 490.38 1033.57 484.023C1036.21 480.026 1047.75 479.574 1052.09 481.025C1054.42 481.806 1056.63 484.511 1058.81 485.108C1059.52 485.306 1065.98 483.154 1067.31 482.896L1067.99 476.075C1068.52 471.027 1068.81 464.648 1073.17 461.261C1076.18 458.925 1080.54 458.55 1084.2 459.046C1086.66 459.38 1089.06 460.227 1090.51 462.381C1093.77 467.193 1090.77 476.928 1089.81 482.339C1092.41 482.069 1095.65 481.434 1098.22 481.754C1106.83 482.826 1105.11 486.426 1115 483.161C1115.86 475.189 1116.13 465.431 1121.24 458.851C1126.34 452.291 1135.18 450.069 1143.04 449.17Z"/><path fill="#85FCEC" d="M1037.94 485.8C1041.72 485.733 1045.78 485.444 1049.52 485.989C1051.4 486.263 1052.66 486.66 1053.77 488.176C1053.19 496.109 1030.99 551.477 1026.11 557.38C1020.61 560.557 1012.63 558.999 1006.63 558.093C1002.5 542.781 1001.44 526.289 998.752 510.642C993.515 522.661 985.618 546.166 979.33 555.99C978.184 557.78 977.011 558.568 974.903 558.943C971.745 559.505 961.724 559.767 959.307 557.883C955.596 554.988 951.989 521.387 951.141 514.981C950.212 508.064 948.019 500.521 947.76 493.615C947.691 491.772 948.035 489.463 949.443 488.139C953.188 484.618 960.855 486.139 965.442 486.431C968.382 504.149 970.544 523.388 971.046 541.337C975.509 528.934 987.106 496.136 994.061 486.463C999.7 486.163 1005.28 486.083 1010.92 486.171C1014.93 498.707 1016.28 524.999 1018.65 539.638C1024.61 521.964 1030.21 502.741 1037.94 485.8Z"/><path fill="#85FCEC" d="M1140.69 454.473C1142.77 454.337 1144.85 454.228 1146.93 454.148C1149.43 454.07 1150.45 454.425 1152.26 456.126C1153.18 458.365 1153.18 460.662 1152.78 463.035C1151.36 471.479 1142.36 466.873 1137.82 470.619C1133.59 474.113 1133.36 482.691 1132.81 487.763C1138.46 487.338 1143.92 487.543 1149.57 487.905C1149.26 492.088 1148.75 496.14 1148.02 500.269C1142.46 500.762 1136.66 500.5 1131.07 500.553L1123.27 554.867C1123.04 555.729 1122.7 556.595 1122.42 557.442C1118.77 560.555 1111.58 559.159 1107.08 558.916C1106.96 545.312 1110.45 530.292 1112.51 516.808C1113.3 511.61 1114.5 506.385 1114.32 501.107C1112.94 500.648 1110.68 500.454 1109.47 499.758C1108.07 498.953 1107.43 497.832 1107.08 496.292C1106.64 494.356 1106.97 492.089 1107.98 490.396C1110.88 487.578 1115.49 487.808 1119.28 487.541C1120.07 480.446 1119.94 470.469 1123.65 464.254C1127.29 458.159 1134.24 456.14 1140.69 454.473Z"/><path fill="#85FCEC" d="M1076.34 463.8L1087.04 463.816C1086.44 471.631 1085.18 479.338 1083.94 487.071C1088.77 487.186 1096.71 485.065 1100.67 488.045C1103.08 491.534 1101.61 496.07 1100.99 499.975L1082.45 499.981C1080.68 508.49 1075.96 535.099 1077.93 542.299C1081.14 545.418 1088.56 544.278 1092.89 544.278C1092.87 547.331 1092.45 550.441 1092.2 553.485C1091.83 554.866 1091.21 556.479 1090.1 557.383C1086.79 560.078 1077.03 559.348 1072.84 558.831C1069.63 558.434 1065.85 557.457 1063.82 554.722C1057.81 546.649 1065.53 511.383 1067.33 500.229C1064.69 500.305 1062.03 500.044 1059.39 499.868C1059.52 496.057 1059.75 492.251 1060.09 488.453C1063.7 487.788 1067.46 487.44 1071.11 486.955C1072.13 479.636 1072.46 470.183 1076.34 463.8Z"/><path fill="#447BD2" d="M1118.39 281.104C1120.98 280.506 1132.63 280.63 1135.53 280.83C1146.56 281.469 1161.42 286.474 1168.61 295.631C1183.76 314.933 1171.99 347.25 1171.01 369.588C1170.43 383.059 1168.17 396.392 1166.69 409.467C1165.39 420.954 1154.35 419.695 1145.76 420.135C1141.39 420.406 1136.92 420.271 1132.47 420.109C1130.46 420.036 1127.51 416.392 1125.59 416.187C1104.92 427.201 1077.74 426.927 1063.55 405.773C1060.36 400.85 1059.22 392.972 1059.21 387.123C1059.14 339.907 1095.77 332.327 1135.84 332.591C1135.94 328.753 1136.12 320.78 1131.69 318.906C1120.91 314.345 1112.56 330.459 1104.82 332.876C1099.3 334.599 1082.43 335.058 1076.88 332.453C1069.08 327.3 1078.03 306.479 1082.13 300.642C1091.51 287.281 1103.21 283.853 1118.39 281.104ZM1109.5 391.237C1116.84 390.712 1124.83 388.564 1129.88 382.863C1135.81 376.158 1135.12 367.355 1136.68 359.152C1132.85 359.133 1128.42 358.722 1124.67 359.394C1115.47 360.455 1105.64 361.829 1099.53 369.677C1097.2 372.663 1095.34 376.682 1095.86 380.552C1096.27 383.697 1098.22 385.991 1100.7 387.812C1103.47 389.84 1106.18 390.567 1109.5 391.237Z"/><path fill="#85FCEC" d="M1124.74 285.977C1165.93 282.971 1175.57 306.594 1169.05 342.623C1164.93 365.377 1164.86 390.745 1160.44 413.881C1155.47 414.748 1135.21 417.072 1132.09 413.914C1131.49 410.986 1132.32 406.764 1132.73 403.688C1118.37 416.111 1100.91 422.109 1081.7 415.004C1074 412.158 1069.21 405.576 1066.23 398.105C1064.87 393.518 1064.37 389.781 1064.46 385.02C1065.36 340.62 1103.83 337.17 1140.2 338.22C1142.1 321.623 1143.29 312.233 1121.72 314.191C1111.69 315.101 1111.35 322.498 1104.91 327.234C1102.11 329.29 1083.92 329.035 1080.12 328.015C1079.56 327.14 1079.06 326.686 1079.13 325.591C1080.68 298.205 1100.53 287.748 1124.74 285.977ZM1109.5 391.237C1116.84 390.712 1124.83 388.564 1129.88 382.863C1135.81 376.158 1135.12 367.355 1136.68 359.152C1132.85 359.133 1128.42 358.722 1124.67 359.394C1115.47 360.455 1105.64 361.829 1099.53 369.677C1097.2 372.663 1095.34 376.682 1095.86 380.552C1096.27 383.697 1098.22 385.991 1100.7 387.812C1103.47 389.84 1106.18 390.567 1109.5 391.237Z"/><path fill="#447BD2" d="M1124.67 359.394C1128.42 358.722 1132.85 359.133 1136.68 359.152C1135.12 367.355 1135.81 376.158 1129.88 382.863C1124.83 388.564 1116.84 390.712 1109.5 391.237C1106.18 390.567 1103.47 389.84 1100.7 387.812C1098.22 385.991 1096.27 383.697 1095.86 380.552C1095.34 376.682 1097.2 372.663 1099.53 369.677C1105.64 361.829 1115.47 360.455 1124.67 359.394ZM1105.44 385.391C1112.11 386.056 1118.71 385.425 1124.11 380.982C1128.49 377.383 1130.36 372.055 1130.74 366.537C1130.79 365.793 1130.7 365.054 1130.56 364.325L1128.92 364.195C1121.34 365.253 1108.74 366.334 1103.71 372.931C1101.93 375.265 1101.59 377.993 1102.06 380.835C1102.36 382.677 1103.06 383.837 1104.63 384.891C1104.89 385.068 1105.17 385.229 1105.44 385.391Z"/><path fill="#7A52C3" d="M838.185 281.127C840.135 280.819 842.217 280.877 844.331 280.771C894.656 278.245 899.994 324.793 886.626 362.278C883.589 370.792 832.692 365.195 823.263 367.135C822.442 367.339 821.074 367.603 820.805 368.641C819.261 374.591 820.036 380.573 825.247 383.881C838.405 392.231 845.887 372.681 850.535 371.553L850.888 371.47C857.326 369.906 866.133 370.952 872.817 370.635C888.348 369.897 886.174 379.341 883.41 390.011C875.946 408.462 862.442 418.324 843.114 421.96C805.954 428.95 775.925 411.26 777.778 370.949C779.792 327.125 789.182 289.042 838.185 281.127ZM825.543 331.758C830.876 331.944 836.212 331.995 841.547 331.911L852.417 331.866C852.12 327.971 852.061 323.942 848.801 321.227C846.005 318.899 842.148 318.93 838.726 319.141C831.807 321.658 829.058 325.619 825.543 331.758Z"/><defs><linearGradient id="gradient_9" gradientUnits="userSpaceOnUse" x1="790.94684" y1="323.42029" x2="882.25098" y2="379.62161"><stop offset="0" stop-color="#F6B5D5"/><stop offset="1" stop-color="#E2CBDA"/></linearGradient></defs><path fill="url(#gradient_9)" d="M837.061 286.562C838.891 286.433 840.722 286.318 842.554 286.217C885.492 283.915 891.187 313.597 885.097 348.997C884.418 352.947 883.218 356.809 880.449 359.8C874.936 362.675 827.161 361.679 816.781 361.998C806.833 391.332 837.9 401.988 852.768 375.467C857.519 375.415 876.241 374.721 879.745 376.303C880.545 378.198 879.989 380.589 879.719 382.688C878.391 387.936 876.165 392.916 873.138 397.405C858.224 419.185 821.508 424.392 799.754 410.377C780.161 396.855 782.109 372.256 784.596 352.095C788.664 319.123 801.594 292.39 837.061 286.562ZM825.543 331.758C830.876 331.944 836.212 331.995 841.547 331.911L852.417 331.866C852.12 327.971 852.061 323.942 848.801 321.227C846.005 318.899 842.148 318.93 838.726 319.141C831.807 321.658 829.058 325.619 825.543 331.758Z"/><path fill="#7A52C3" d="M837.719 313.636C839.819 313.441 842.034 313.37 844.136 313.511C847.735 313.752 851.484 315.393 853.805 318.202C858.311 323.655 857.374 330.783 856.678 337.268L840.867 337.334C833.58 337.406 826.277 337.286 818.988 337.252C819.541 333.603 820.676 329.641 822.263 326.308C825.573 319.356 830.734 316.119 837.719 313.636ZM825.543 331.758C830.876 331.944 836.212 331.995 841.547 331.911L852.417 331.866C852.12 327.971 852.061 323.942 848.801 321.227C846.005 318.899 842.148 318.93 838.726 319.141C831.807 321.658 829.058 325.619 825.543 331.758Z"/><path fill="#7A52C3" d="M617.127 280.526C625.018 279.6 635.54 280.982 643.068 282.906C664.272 288.412 671.766 306.002 666.588 326.294C664.094 336.07 654.33 333.53 646.455 334.207C642.288 334.565 636.758 334.072 632.76 333.185C627.451 332.007 628.156 325.439 626.039 321.692C623.552 317.51 613.963 319.442 610.636 321.716C608.665 323.073 608.436 323.884 608.04 326.068C613.774 339.04 662.27 329.982 661.38 369.633C660.453 410.979 635.341 423.576 597.705 423.107C593.446 423.236 587.107 422.038 582.893 421.08C561.443 416.207 551.421 396.356 555.119 375.595C556.729 367.42 567.414 367.862 572.653 367.947C586.474 368.294 592.639 366.218 595.936 381.537C596.806 385.581 618.098 387.985 619.897 378.808C617.839 370.601 598.686 367.935 590.74 365.83C558.393 357.262 555.626 323.541 573.953 300.076C584.55 286.509 599.68 282.24 617.127 280.526Z"/><path fill="#FE9DCE" d="M616.026 285.959C622.061 285.043 631.595 285.794 637.625 286.869C661.301 291.089 665.548 307.373 661.133 328.468C655.098 329.246 641.25 328.964 634.869 328.902C631.933 318.751 629.32 314.876 618.353 313.75C611.958 313.093 600.368 320.037 602.241 326.204C607.167 342.421 638.071 337.522 648.787 349.387C654.551 355.922 655.72 360.26 656.031 368.457C657.108 403.131 634.986 417.373 602.335 417.767C583.486 417.753 563.298 412.766 560.262 390.175C559.712 386.086 559.343 378.069 561.055 374.465C564.14 372.358 582.818 373.351 588.005 373.432C589.456 386.524 597.312 391.397 610.247 390.228C616.671 389.741 626.607 384.94 625.44 377.125C624.018 367.593 608.053 365.318 600.39 363.08C585.38 358.696 570.448 354.558 568.249 336.409C566.844 325.035 570.009 313.569 577.049 304.526C587.537 291.264 600.168 287.755 616.026 285.959Z"/><path fill="#447BD2" d="M1336.59 281.153C1344.36 279.865 1354.25 280.526 1362.08 282.206C1383.02 286.699 1394.46 305.451 1390.01 326.098C1389.6 327.991 1388.19 331.366 1386.13 332.149C1377.73 335.36 1366.54 334.804 1357.82 333.029C1351.05 331.112 1350.95 310.757 1336.98 320.445C1335.03 321.792 1332.53 323.34 1332.02 325.866C1334.84 332.525 1364 337.053 1373.16 344.67C1391.13 359.615 1388.26 385.459 1376.28 402.595C1367.43 415.243 1349.57 420.968 1335.5 422.852C1329.57 424.159 1315 422.913 1308.93 421.04C1299.78 418.305 1292.12 411.982 1287.7 403.51C1283.64 395.551 1282.71 384.311 1285 375.666C1288.43 362.7 1312.25 368.207 1321.26 371.39C1321.82 374.331 1322.77 380.671 1325.02 382.616C1330.06 386.967 1340.55 385.673 1345.02 381.266C1346.17 378.299 1345.37 376.039 1342.47 374.641C1324.18 365.807 1295.06 364.915 1292.19 338.443C1289 309.02 1307.29 285.469 1336.59 281.153Z"/><path fill="#85FCEC" d="M1336.87 286.547C1343.76 285.651 1351.64 285.719 1358.52 286.935C1367.13 288.457 1375.35 292.323 1380.41 299.718C1386.43 308.51 1386 318.319 1384.21 328.264C1375.83 329.648 1366.81 329.028 1358.34 328.929C1357.6 324.188 1356.86 320.216 1352.93 317.073C1349.39 314.247 1344.99 313.545 1340.58 314.056C1336.39 314.542 1331.71 316.355 1329.11 319.833C1327.72 321.69 1327.06 323.925 1327.45 326.232C1329.49 338.124 1360.46 341.179 1370.1 348.459C1375.78 352.753 1378.9 359.301 1379.84 366.253C1381.39 377.682 1379.3 389.675 1372.17 398.937C1362.6 411.381 1348.23 415.617 1333.3 417.565C1332.9 417.586 1332.5 417.605 1332.1 417.62C1320.04 418.089 1307.04 417.71 1297.69 408.869C1291.73 403.227 1289.28 395.262 1289.04 387.239C1288.95 384.101 1288.86 376.116 1291.27 373.99C1293.44 372.072 1312.26 373.37 1316.36 373.465C1317.55 379.402 1318.01 383.212 1323.02 387.428C1329.79 393.118 1344.95 390.529 1349.55 383.323C1359.2 368.068 1330.5 365.523 1321.25 361.835C1309.68 357.217 1299.04 352.153 1297.4 337.673C1294.41 311.337 1310.78 290.592 1336.87 286.547Z"/><path fill="#447BD2" d="M1046.18 236.413C1052.96 236.998 1065.52 234.672 1070.5 239.429C1075.63 244.316 1071.64 261.199 1070.75 268.048L1065.25 310.244L1057.05 372.566C1055.49 385.251 1054.3 397.901 1052.52 410.574C1051.05 421.032 1045.11 419.979 1036.08 420.034C1026.78 419.906 1008.72 423.692 1009.44 410.5C1009.9 402.124 1010.8 394.539 1011.86 386.209L1015.97 352.293L1024.57 283.088C1026.11 271.111 1027.55 259.128 1029.41 247.196C1031.09 236.384 1037.02 236.658 1046.18 236.413Z"/><path fill="#85FCEC" d="M1036.76 241.567C1047 241.474 1057.95 241.151 1068.03 242.613C1067.86 251.737 1065.9 264.041 1064.68 273.405L1058.65 319.74L1051.93 371.359C1051.17 377.663 1047.9 412.251 1045.25 414.829C1036.19 415.02 1023 415.634 1014.35 414.83C1014.19 407.701 1015.86 394.987 1016.77 387.698L1021.69 348.561C1023.52 333.786 1032.78 247.904 1036.76 241.567Z"/><path fill="#447BD2" d="M924.036 533.404C928.156 533.052 932.222 533.311 935.966 535.252C939.607 537.14 942.425 540.336 943.577 544.298C944.7 548.23 944.201 552.447 942.192 556.009C939.843 560.1 936.066 562.588 931.596 563.784C928.275 564.04 924.168 564.387 921.004 563.261C917.214 561.913 913.902 559.193 912.29 555.459C910.677 551.713 910.641 547.476 912.19 543.703C914.47 538.149 918.686 535.538 924.036 533.404Z"/><path fill="#85FCEC" d="M927.514 538.251C929.86 538.53 931.955 538.921 934.012 540.148C936.289 541.505 937.995 543.671 938.609 546.265C939.269 549.058 938.665 551.842 937.102 554.231C934.781 557.78 931.621 558.971 927.622 559.777C925.074 559.445 922.495 559.198 920.34 557.678C918.03 556.077 916.485 553.591 916.074 550.81C915.669 547.959 916.562 544.983 918.326 542.729C920.891 539.45 923.521 538.803 927.514 538.251Z"/></svg>