<?xml version="1.0" encoding="utf-8" ?><svg xmlns="http://www.w3.org/2000/svg" xmlns:xlink="http://www.w3.org/1999/xlink" width="827" height="324" viewBox="0 0 827 324"><path fill="#542F7D" d="M136.164 69.9423C135.785 69.6886 134.38 68.7486 134.167 68.4733C131.547 65.0778 134.584 57.2265 135.618 54.0316C139.456 42.1682 145.722 31.3694 154.639 22.7195C170.315 7.51283 191.675 0.82745 213.21 1.34972C235.194 1.28612 255.794 9.83717 271.093 25.7383C281.032 36.0683 287.32 50.0244 288.938 64.4737C289.066 65.6199 287.016 67.5087 286.874 68.5672C286.549 70.9685 286.79 73.5594 286.736 76.0328C289.908 80.0663 293.404 81.798 295.37 86.9694C297.224 89.269 298.522 94.451 298.964 97.3831C299.263 99.1039 299.73 101.251 299.651 102.958C301.268 117.493 297.772 126.766 289.293 137.98C289.973 145.152 290.832 147.979 293.696 154.464C298.486 162.511 306.824 171.947 313.652 178.338C315.127 179.321 315.409 179.2 316.188 180.691C316.373 184.711 310.341 191.325 308.493 195.229C303.933 204.864 302.686 215.639 306.917 225.631C308.383 229.095 311.992 234.477 312.398 237.94C312.417 238.103 312.428 238.267 312.432 238.43C312.517 241.969 308.464 246.331 307.471 249.558C306.515 252.665 305.844 257.238 306.035 260.492C306.633 270.7 301.465 274.83 291.354 273.401C290.503 272.57 290.371 272.423 290.257 271.017C285.223 271.571 280.471 273.766 275.449 274.408C273.895 274.725 271.754 274.961 270.63 275.969C269.963 278.217 271.147 277.201 271.056 279.617C269.254 281.946 262.951 281.89 260.252 281.684C257.158 281.62 252.106 279.211 249.189 279.532C216.284 283.144 181.454 284.764 149.345 275.323C146.602 274.516 144.113 273.943 141.404 273.348C138.055 272.612 126.183 275.521 125.718 270.463C126.167 269.266 127.732 268.598 128.896 267.925L127.159 267.046C104.026 255.299 103.54 252.1 115.162 229.677C114.815 228.318 114.533 226.904 114.24 225.529C112.598 221.112 111.459 210.585 112.472 205.961L110.953 205.717C108.893 209.648 108.672 211.848 108.083 216.29C108.166 219.085 108.358 222.508 108.241 225.253C105.899 223.945 104.553 223.165 102.72 221.125C92.751 210.047 92.9186 196.98 99.4867 184.277C105.879 172.706 118.192 164.261 125.566 152.376C128.189 151.897 128.353 150.755 130.112 148.87L129.382 150.675L131.714 150.266C132.311 150.813 132.352 150.971 132.664 151.724L133.858 149.803C133.87 149.56 136.963 141.636 137.293 140.6C130.628 141.056 132.978 143.265 129.451 144.77C130.203 142.695 130.898 140.356 131.574 138.235C121.535 128.087 118.195 116.38 119.414 102.177C119.738 96.7627 121.774 88.6187 124.626 84.0094C125.75 80.4468 131.205 77.9826 134.222 76.548L136.164 69.9423Z"/><path fill="#F7BFDC" d="M137.293 140.6C144.488 142.449 148.343 143.03 155.735 140.998C157.147 144.77 159.19 149.231 161.844 152.285C169.73 161.36 168.143 176.177 163.362 186.317C157.911 197.879 150.122 208.684 152.164 222.173C152.933 227.257 154.434 232.639 154.85 237.722C146.236 223.112 139.929 219.475 144.582 200.085C145.621 195.753 147.235 191.531 148.84 187.319C138.903 201.409 133.306 212.523 141.561 229.073C142.014 232.199 144.104 233.408 144.783 235.662C145.818 239.099 147.879 248.777 146.203 252.085C145.065 252.681 143.014 251.649 141.839 251.151C137.785 243.051 136.429 242.166 130.396 235.371C130.326 236.252 132.131 238.763 132.68 239.513C131.142 239.832 131.437 239.632 129.707 238.838C125.774 235.145 121.709 227.182 119.769 222.163C116.902 220.677 118.61 213.528 117.243 211.384C116.104 210.86 113.877 210.035 112.638 210.021C112.733 214.494 113.799 220.13 114.723 224.574C114.533 224.949 114.372 225.267 114.24 225.529C112.598 221.112 111.459 210.585 112.472 205.961L110.953 205.717C108.893 209.648 108.672 211.848 108.083 216.29C108.166 219.085 108.358 222.508 108.241 225.253C105.899 223.945 104.553 223.165 102.72 221.125C92.751 210.047 92.9186 196.98 99.4867 184.277C105.879 172.706 118.192 164.261 125.566 152.376C128.189 151.897 128.353 150.755 130.112 148.87L129.382 150.675L131.714 150.266C132.311 150.813 132.352 150.971 132.664 151.724L133.858 149.803C133.87 149.56 136.963 141.636 137.293 140.6Z"/><defs><linearGradient id="gradient_0" gradientUnits="userSpaceOnUse" x1="117.96204" y1="219.85809" x2="115.36615" y2="168.70822"><stop offset="0" stop-color="#6D4496"/><stop offset="1" stop-color="#C885C7"/></linearGradient></defs><path fill="url(#gradient_0)" d="M104.222 212.471C106.193 191.097 125.037 180.403 138.102 165.636C137.016 168.175 135.538 170.762 134.375 173.357C126.976 186.337 115.394 203.731 119.214 219.42L119.769 222.163C116.902 220.677 118.61 213.528 117.243 211.384C116.104 210.86 113.877 210.035 112.638 210.021C112.733 214.494 113.799 220.13 114.723 224.574C114.533 224.949 114.372 225.267 114.24 225.529C112.598 221.112 111.459 210.585 112.472 205.961L110.953 205.717C108.893 209.648 108.672 211.848 108.083 216.29C108.166 219.085 108.358 222.508 108.241 225.253C105.899 223.945 104.553 223.165 102.72 221.125C92.751 210.047 92.9186 196.98 99.4867 184.277C103.281 182.473 102.692 180.834 105.688 178.613L105.644 178.739C104.714 181.315 100.899 186.18 99.1119 188.493L99.525 187.366C97.189 190.985 95.4104 195.882 96.1044 200.33C96.466 202.646 98.5847 204.139 100.381 205.594C100.832 205.656 101.527 205.781 101.951 205.737C102.207 206.28 103.71 211.14 104.222 212.471Z"/><path fill="#673D95" d="M102.72 221.125C103.947 220.739 105.183 220.38 106.425 220.047C107.65 218.841 107.566 218.079 108.083 216.29C108.166 219.085 108.358 222.508 108.241 225.253C105.899 223.945 104.553 223.165 102.72 221.125Z"/><path fill="#F2E7F3" d="M110.953 205.717L110.563 205.633C111.25 202.974 114.409 198.196 116.064 195.903C115.624 197.021 112.717 205.73 112.472 205.961L110.953 205.717Z"/><defs><linearGradient id="gradient_1" gradientUnits="userSpaceOnUse" x1="119.27187" y1="180.01051" x2="109.11665" y2="172.62613"><stop offset="0" stop-color="#9056A1"/><stop offset="1" stop-color="#C287CE"/></linearGradient></defs><path fill="url(#gradient_1)" d="M125.566 152.376C128.189 151.897 128.353 150.755 130.112 148.87L129.382 150.675L131.714 150.266C132.311 150.813 132.352 150.971 132.664 151.724C127.28 166.089 101.895 180.784 101.662 198.885C101.134 200.401 101.734 203.986 101.951 205.737C101.527 205.781 100.832 205.656 100.381 205.594C98.5847 204.139 96.466 202.646 96.1044 200.33C95.4104 195.882 97.189 190.985 99.525 187.366L99.1119 188.493C100.899 186.18 104.714 181.315 105.644 178.739L105.688 178.613C102.692 180.834 103.281 182.473 99.4867 184.277C105.879 172.706 118.192 164.261 125.566 152.376Z"/><path fill="#9059AD" d="M125.566 152.376C128.189 151.897 128.353 150.755 130.112 148.87L129.382 150.675C125.996 158.926 119.562 162.666 113.722 169.04C110.835 172.19 108.409 175.583 105.688 178.613C102.692 180.834 103.281 182.473 99.4867 184.277C105.879 172.706 118.192 164.261 125.566 152.376Z"/><path fill="#FAF8FA" d="M133.858 149.803C134.435 150.7 134.696 151.145 134.305 152.263C129.252 166.693 118.561 176.063 108.281 186.7C106.124 188.933 103.869 197.739 101.662 198.885C101.895 180.784 127.28 166.089 132.664 151.724L133.858 149.803Z"/><defs><linearGradient id="gradient_2" gradientUnits="userSpaceOnUse" x1="129.29506" y1="196.09288" x2="123.9629" y2="193.38255"><stop offset="0" stop-color="#F6D4ED"/><stop offset="1" stop-color="white"/></linearGradient></defs><path fill="url(#gradient_2)" d="M134.375 173.357L135.092 173.609C135.483 176.781 123.354 199.425 121.869 204.063C119.966 210.005 120.73 213.85 119.214 219.42C115.394 203.731 126.976 186.337 134.375 173.357Z"/><defs><linearGradient id="gradient_3" gradientUnits="userSpaceOnUse" x1="270.60522" y1="144.49789" x2="269.20755" y2="260.776"><stop offset="0" stop-color="#FFC8D5"/><stop offset="1" stop-color="#CDAFEF"/></linearGradient></defs><path fill="url(#gradient_3)" d="M278.645 144.756C280.495 144.431 281.092 144.364 282.742 143.349C282.96 145.248 283.112 146.725 283.553 148.598L284.965 147.429L285.287 148.496C288.56 151.336 285.044 152.281 290.322 152.173L290.471 150.454C291.632 151.397 292.041 153.294 293.696 154.464C298.486 162.511 306.824 171.947 313.652 178.338C312.323 179.771 310.522 181.584 309.498 183.171L307.893 185.443C306.063 188.315 304.164 191.441 302.106 194.13C301.125 192.914 300.201 191.623 298.922 190.737C300.098 192.611 301.001 193.343 301.188 195.296L300.625 196.566L299.551 195.789L298.985 196.061C293.246 193.087 281.981 173.753 280.516 173.06C281.765 177.28 282.995 181.472 284.601 185.571C287.058 191.844 289.799 197.18 291.222 203.841C299.368 245.184 245.193 242.244 260.841 276.034C257.459 275.206 255.99 274.811 252.982 273.15C244.049 268.217 242.612 254.469 249.742 247.218C250.178 245.625 256.195 237.771 257.456 235.844C269.622 217.261 265.859 201.378 257.125 182.691C260.103 197.678 262.232 213.369 254.577 227.349C251.113 234.43 245.068 240.715 241.64 248.146C241.497 247.243 241.144 246.528 240.785 245.695C239.599 247.941 238.214 250.407 237.353 252.77C237.008 251.871 236.675 250.759 236.369 249.827L236.417 250.365C235.385 249.626 233.935 248.839 232.814 248.187C233.556 245.771 233.654 244.794 233.903 242.264C234.502 239.436 240.597 231.296 242.077 227.66C247.881 213.4 242.532 198.755 241.059 184.197C245.105 183.197 250.279 182.326 252.447 178.643C254.085 175.861 258.048 172.827 260.6 170.49C269.003 162.796 274.708 155.542 278.645 144.756Z"/><defs><linearGradient id="gradient_4" gradientUnits="userSpaceOnUse" x1="276.12878" y1="256.83438" x2="259.62534" y2="241.23553"><stop offset="0" stop-color="#9D72BD"/><stop offset="1" stop-color="#C3A1EA"/></linearGradient></defs><path fill="url(#gradient_4)" d="M291.222 203.841C299.368 245.184 245.193 242.244 260.841 276.034C257.459 275.206 255.99 274.811 252.982 273.15C244.049 268.217 242.612 254.469 249.742 247.218C249.939 248.566 247.604 252.402 246.788 254.455C248.075 256.635 251.226 262.056 254.012 261.118C255.412 259.613 256.102 256.028 257.186 254.208C268.354 235.465 284.121 234.814 288.011 210.615L288.211 210.851C288.805 217.285 283.741 222.598 283.002 226.99C283.64 227.186 283.955 227.432 284.445 227.876C292.158 228.659 290.164 207.596 291.222 203.841Z"/><defs><linearGradient id="gradient_5" gradientUnits="userSpaceOnUse" x1="301.35806" y1="154.55196" x2="296.55963" y2="178.96072"><stop offset="0" stop-color="#8B56A7"/><stop offset="1" stop-color="#B77CC7"/></linearGradient></defs><path fill="url(#gradient_5)" d="M285.287 148.496C288.56 151.336 285.044 152.281 290.322 152.173L290.471 150.454C291.632 151.397 292.041 153.294 293.696 154.464C298.486 162.511 306.824 171.947 313.652 178.338C312.323 179.771 310.522 181.584 309.498 183.171C299.915 173.944 288.602 161.694 285.287 148.496Z"/><path fill="#FAF8FA" d="M283.553 148.598L284.965 147.429L285.287 148.496C288.602 161.694 299.915 173.944 309.498 183.171L307.893 185.443C307.778 185.381 307.665 185.317 307.552 185.252C300.496 181.149 291.807 171.479 288.521 163.992C286.326 158.992 284.977 153.876 283.553 148.598Z"/><path fill="#EFA1C5" d="M280.817 167.973C284.294 172.98 294.459 186.777 298.922 190.737C300.098 192.611 301.001 193.343 301.188 195.296L300.625 196.566L299.551 195.789L298.985 196.061C293.246 193.087 281.981 173.753 280.516 173.06C279.956 171.924 280.555 169.26 280.817 167.973Z"/><path fill="#B899E5" d="M240.785 245.695C242.426 242.027 247.004 235.274 249.623 232.414L247.975 235.044C250.347 232.628 252.896 228.353 254.577 227.349C251.113 234.43 245.068 240.715 241.64 248.146C241.497 247.243 241.144 246.528 240.785 245.695Z"/><defs><linearGradient id="gradient_6" gradientUnits="userSpaceOnUse" x1="276.49646" y1="242.78418" x2="297.90042" y2="256.13962"><stop offset="0" stop-color="#9A78CB"/><stop offset="1" stop-color="#D6C2FE"/></linearGradient></defs><path fill="url(#gradient_6)" d="M313.652 178.338C315.127 179.321 315.409 179.2 316.188 180.691C316.373 184.711 310.341 191.325 308.493 195.229C303.933 204.864 302.686 215.639 306.917 225.631C308.383 229.095 311.992 234.477 312.398 237.94C312.417 238.103 312.428 238.267 312.432 238.43C312.517 241.969 308.464 246.331 307.471 249.558C306.515 252.665 305.844 257.238 306.035 260.492C306.633 270.7 301.465 274.83 291.354 273.401C290.503 272.57 290.371 272.423 290.257 271.017C290.811 270.809 292.686 270.111 293.016 269.681C295.15 266.902 297.617 262.931 297.609 259.394C291.998 261.769 269.039 269.89 264.641 268.727C263.905 267.837 263.713 266.129 263.849 265.047C265.004 255.883 272.477 251.974 278.897 246.607C287.897 241.164 297.582 227.741 297.253 216.892C296.957 209.864 298.345 205.069 300.19 198.419C300.449 197.483 299.592 196.84 298.985 196.061L299.551 195.789L300.625 196.566L301.188 195.296C301.001 193.343 300.098 192.611 298.922 190.737C300.201 191.623 301.125 192.914 302.106 194.13C304.164 191.441 306.063 188.315 307.893 185.443L309.498 183.171C310.522 181.584 312.323 179.771 313.652 178.338Z"/><path fill="#F7BFDC" d="M313.652 178.338C315.127 179.321 315.409 179.2 316.188 180.691C316.373 184.711 310.341 191.325 308.493 195.229C303.933 204.864 302.686 215.639 306.917 225.631C308.383 229.095 311.992 234.477 312.398 237.94C312.417 238.103 312.428 238.267 312.432 238.43C312.517 241.969 308.464 246.331 307.471 249.558C306.515 252.665 305.844 257.238 306.035 260.492C306.633 270.7 301.465 274.83 291.354 273.401C290.503 272.57 290.371 272.423 290.257 271.017C290.811 270.809 292.686 270.111 293.016 269.681C295.15 266.902 297.617 262.931 297.609 259.394C296.984 254.467 302.319 242.289 304.082 237.12C303.556 235.453 301.699 231.863 300.872 230.156C298.093 224.425 298.055 222.659 297.253 216.892C296.957 209.864 298.345 205.069 300.19 198.419C300.449 197.483 299.592 196.84 298.985 196.061L299.551 195.789L300.625 196.566L301.188 195.296C301.001 193.343 300.098 192.611 298.922 190.737C300.201 191.623 301.125 192.914 302.106 194.13C304.164 191.441 306.063 188.315 307.893 185.443L309.498 183.171C310.522 181.584 312.323 179.771 313.652 178.338Z"/><defs><linearGradient id="gradient_7" gradientUnits="userSpaceOnUse" x1="267.72247" y1="81.078316" x2="284.29022" y2="99.577202"><stop offset="0" stop-color="#804DA6"/><stop offset="1" stop-color="#9965B2"/></linearGradient></defs><path fill="url(#gradient_7)" d="M279.944 67.2822C281.389 66.6914 284.264 66.8615 285.953 66.8562C285.876 69.3893 285.771 73.6662 286.736 76.0328C289.908 80.0663 293.404 81.798 295.37 86.9694C297.224 89.269 298.522 94.451 298.964 97.3831C294.184 97.1176 295.063 91.3952 292.202 88.4068C290.369 86.4911 289.421 87.6865 287.94 85.3277C286.739 85.2663 285.513 85.1533 284.312 85.0562C283.321 85.6897 281.562 86.7333 280.76 87.4985C276.882 91.2853 274.698 97.3134 273.45 102.476L272.758 106.087C267.962 107.326 268.039 101.172 265.708 98.9566C264.773 102.423 264.345 104.958 263.769 108.478C262.309 105.276 265.884 100.194 261.919 98.273C261.174 99.0704 261.042 100.678 260.773 101.907L260.371 101.96C260.194 100.149 260.509 99.9855 259.427 98.9862C259.404 92.5108 265.385 83.6577 269.442 78.7495C266.342 79.3574 264.73 79.9135 261.993 81.4105C263.05 79.2165 268.232 77.3142 270.057 78.0753C270.022 79.3398 270.188 78.8878 269.513 79.8468C271.127 79.4796 274.148 76.979 275.406 75.7912L275.321 74.6573C273.273 72.5343 274.041 71.3966 274.529 68.6262C275.212 67.5155 278.653 67.4234 279.944 67.2822Z"/><path fill="#C5ACF3" d="M265.708 98.9566C268.093 89.2116 274.564 75.392 286.602 83.6089L287.94 85.3277C286.739 85.2663 285.513 85.1533 284.312 85.0562C283.321 85.6897 281.562 86.7333 280.76 87.4985C276.882 91.2853 274.698 97.3134 273.45 102.476L272.758 106.087C267.962 107.326 268.039 101.172 265.708 98.9566Z"/><path fill="#F2E7F3" d="M273.119 90.9723C276.298 86.9661 278.506 83.8315 284.312 85.0562C283.321 85.6897 281.562 86.7333 280.76 87.4985C276.882 91.2853 274.698 97.3134 273.45 102.476C273.026 103.039 272.607 103.607 272.191 104.177L271.351 103.902C269.156 100.442 271.568 94.301 273.119 90.9723Z"/><path fill="#FCCCE3" d="M286.602 83.6089L287.94 85.3277C286.739 85.2663 285.513 85.1533 284.312 85.0562C278.506 83.8315 276.298 86.9661 273.119 90.9723C275.227 83.6454 280.438 84.2065 286.602 83.6089Z"/><path fill="#673D95" d="M279.944 67.2822C281.389 66.6914 284.264 66.8615 285.953 66.8562C285.876 69.3893 285.771 73.6662 286.736 76.0328C289.908 80.0663 293.404 81.798 295.37 86.9694C294.086 86.245 288.205 78.6612 286.396 77.1614C284.612 75.6816 282.435 75.7314 281.616 74.3747C281.482 73.0199 281.329 71.667 281.16 70.3162C281.005 69.1427 280.909 68.0221 279.944 67.2822Z"/><path fill="#F7BFDC" d="M279.944 67.2822C280.909 68.0221 281.005 69.1427 281.16 70.3162C281.329 71.667 281.482 73.0199 281.616 74.3747C280.885 74.6851 276.235 74.2399 275.113 74.1626C274.866 72.4459 274.705 70.3777 274.529 68.6262C275.212 67.5155 278.653 67.4234 279.944 67.2822Z"/><path fill="#FCCCE3" d="M287.94 85.3277C289.421 87.6865 290.369 86.4911 292.202 88.4068C295.063 91.3952 294.184 97.1176 298.964 97.3831C299.263 99.1039 299.73 101.251 299.651 102.958L299.585 103.235C298.971 105.901 299.067 113.749 296.947 115.478L296.567 115.354C297.241 114.022 298.304 111.856 297.113 110.498C295.114 111.372 294.975 115.544 293.448 117.65C293.84 115.939 293.957 114.339 294.126 112.598C291.378 113.855 289.466 118.67 286.273 119.153C280.743 119.988 282.472 110.547 278.467 107.968L278.349 107.893L278.015 110.319C276.333 109.725 273.831 110.24 272.401 108.964L272.758 106.087L273.45 102.476C274.698 97.3134 276.882 91.2853 280.76 87.4985C281.562 86.7333 283.321 85.6897 284.312 85.0562C285.513 85.1533 286.739 85.2663 287.94 85.3277Z"/><defs><linearGradient id="gradient_8" gradientUnits="userSpaceOnUse" x1="287.79117" y1="108.73936" x2="293.39972" y2="87.499313"><stop offset="0" stop-color="#8651AA"/><stop offset="1" stop-color="#B376C4"/></linearGradient></defs><path fill="url(#gradient_8)" d="M287.94 85.3277C289.421 87.6865 290.369 86.4911 292.202 88.4068C295.063 91.3952 294.184 97.1176 298.964 97.3831C299.263 99.1039 299.73 101.251 299.651 102.958L299.585 103.235C298.971 105.901 299.067 113.749 296.947 115.478L296.567 115.354C297.241 114.022 298.304 111.856 297.113 110.498C295.114 111.372 294.975 115.544 293.448 117.65C293.84 115.939 293.957 114.339 294.126 112.598C294.849 109.877 294.349 101.856 293.622 99.0669C292.565 95.0141 292.12 93.1422 288.59 90.85C287.406 90.6125 285.563 91.0211 284.312 91.2205C284.135 90.0195 284.064 89.7904 283.588 88.6726C281.973 87.4101 282.678 87.6579 280.76 87.4985C281.562 86.7333 283.321 85.6897 284.312 85.0562C285.513 85.1533 286.739 85.2663 287.94 85.3277Z"/><defs><linearGradient id="gradient_9" gradientUnits="userSpaceOnUse" x1="281.32895" y1="107.86081" x2="274.6214" y2="89.978889"><stop offset="0" stop-color="#8757AA"/><stop offset="1" stop-color="#D38FD7"/></linearGradient></defs><path fill="url(#gradient_9)" d="M280.76 87.4985C282.678 87.6579 281.973 87.4101 283.588 88.6726C284.064 89.7904 284.135 90.0195 284.312 91.2205C285.563 91.0211 287.406 90.6125 288.59 90.85C280.497 92.5466 279.635 100.975 278.349 107.893L278.015 110.319C276.333 109.725 273.831 110.24 272.401 108.964L272.758 106.087L273.45 102.476C274.698 97.3134 276.882 91.2853 280.76 87.4985Z"/><defs><linearGradient id="gradient_10" gradientUnits="userSpaceOnUse" x1="277.42188" y1="119.41537" x2="248.8571" y2="99.778435"><stop offset="0" stop-color="#7B58B1"/><stop offset="1" stop-color="#A78ED8"/></linearGradient></defs><path fill="url(#gradient_10)" d="M261.993 81.4105C264.73 79.9135 266.342 79.3574 269.442 78.7495C265.385 83.6577 259.404 92.5108 259.427 98.9862C257.109 109.625 256.204 124.094 260.193 134.476C260.954 136.455 263.729 139.145 263.558 141.277C261.466 142.814 255.874 138.693 255.007 136.947C247.557 121.933 248.773 92.7335 261.993 81.4105Z"/><defs><linearGradient id="gradient_11" gradientUnits="userSpaceOnUse" x1="264.68948" y1="132.806" x2="280.06265" y2="108.05589"><stop offset="0" stop-color="#A183E0"/><stop offset="1" stop-color="#E3CBF8"/></linearGradient></defs><path fill="url(#gradient_11)" d="M265.708 98.9566C268.039 101.172 267.962 107.326 272.758 106.087L272.401 108.964C272.112 111.824 271.629 116.3 272.018 119.061C272.599 127.959 273.896 134.298 283.494 136.755C263.915 146.288 262.363 121.174 263.769 108.478C264.345 104.958 264.773 102.423 265.708 98.9566Z"/><defs><linearGradient id="gradient_12" gradientUnits="userSpaceOnUse" x1="143.90703" y1="121.14989" x2="122.59184" y2="109.55566"><stop offset="0" stop-color="#967BD8"/><stop offset="1" stop-color="#D9BDF3"/></linearGradient></defs><path fill="url(#gradient_12)" d="M130.805 84.4991L132.058 83.6042C132.507 84.1662 131.332 95.3038 131.278 97.4767C131.324 111.464 131.628 123.073 139.107 135.329C129.396 132.41 127.098 122.877 125.443 113.782C125.735 112.58 124.908 103.714 125.536 99.6116C125.221 94.2149 128.061 88.8769 130.805 84.4991Z"/><defs><linearGradient id="gradient_13" gradientUnits="userSpaceOnUse" x1="130.59753" y1="97.41655" x2="125.98435" y2="95.59581"><stop offset="0" stop-color="#D6BEF0"/><stop offset="1" stop-color="#EEDDF2"/></linearGradient></defs><path fill="url(#gradient_13)" d="M130.805 84.4991L132.058 83.6042C132.507 84.1662 131.332 95.3038 131.278 97.4767C128.858 97.2237 130.09 98.1156 128.854 97.6576C129.009 96.8801 129.155 96.1387 129.278 95.3532C126.183 96.6579 128.639 106.856 127.308 108.696L126.952 107.617L126.212 108.174C125.459 106.215 125.809 101.946 125.536 99.6116C125.221 94.2149 128.061 88.8769 130.805 84.4991Z"/><path fill="#A888D7" d="M141.561 229.073C143.812 232.228 148.739 238.716 149.484 242.333C149.642 242.551 149.797 242.758 149.889 243.017C153.387 252.826 145.419 264.441 136.366 267.997C142.198 255.236 137.406 248.945 129.707 238.838C131.437 239.632 131.142 239.832 132.68 239.513C132.131 238.763 130.326 236.252 130.396 235.371C136.429 242.166 137.785 243.051 141.839 251.151C143.014 251.649 145.065 252.681 146.203 252.085C147.879 248.777 145.818 239.099 144.783 235.662C144.104 233.408 142.014 232.199 141.561 229.073Z"/><path fill="#C5ACF3" d="M141.561 229.073C143.812 232.228 148.739 238.716 149.484 242.333L149.344 242.409C148.695 242.155 146.312 237.127 145.767 236.071C145.922 238.174 147.205 240.628 147.632 243.122C148.403 247.271 148.104 252.1 145.616 255.653C144.958 256.592 143.854 258.083 142.745 258.27C140.809 256.332 140.821 250.771 139.672 248.489C138.078 245.325 135.099 242.89 132.68 239.513C132.131 238.763 130.326 236.252 130.396 235.371C136.429 242.166 137.785 243.051 141.839 251.151C143.014 251.649 145.065 252.681 146.203 252.085C147.879 248.777 145.818 239.099 144.783 235.662C144.104 233.408 142.014 232.199 141.561 229.073Z"/><defs><linearGradient id="gradient_14" gradientUnits="userSpaceOnUse" x1="289.88986" y1="127.31812" x2="280.66055" y2="108.48434"><stop offset="0" stop-color="#A589E1"/><stop offset="1" stop-color="#C8ACF9"/></linearGradient></defs><path fill="url(#gradient_14)" d="M278.349 107.893L278.467 107.968C282.472 110.547 280.743 119.988 286.273 119.153C289.466 118.67 291.378 113.855 294.126 112.598C293.957 114.339 293.84 115.939 293.448 117.65C293.087 119.723 291.566 125.424 290.161 126.881C281.146 136.225 278.49 123.603 277.865 117.723C277.871 115.254 277.921 112.786 278.015 110.319L278.349 107.893Z"/><path fill="#9059AD" d="M124.626 84.0094L125.441 84.5907C124.899 86.0029 124.485 86.8334 123.775 88.1745L124.148 88.4535C126.614 87.5409 127.834 85.9373 130.805 84.4991C128.061 88.8769 125.221 94.2149 125.536 99.6116C124.908 103.714 125.735 112.58 125.443 113.782C124.09 112.626 125.423 103.878 121.555 102.172C120.601 103.583 121.362 104.314 120.699 106.115C119.969 105.061 119.712 103.459 119.414 102.177C119.738 96.7627 121.774 88.6187 124.626 84.0094Z"/><path fill="#4C2573" d="M275.449 274.408L275.533 274.006C279.598 270.405 289.567 272.197 293.231 268.057C294.078 267.1 294.714 263.458 294.138 262.057C292.007 261.8 268.388 270.956 264.678 269.617C259.704 267.821 265.645 256.999 268.498 254.371C271.233 251.853 274.308 248.84 278.147 246.412L278.897 246.607C272.477 251.974 265.004 255.883 263.849 265.047C263.713 266.129 263.905 267.837 264.641 268.727C269.039 269.89 291.998 261.769 297.609 259.394C297.617 262.931 295.15 266.902 293.016 269.681C292.686 270.111 290.811 270.809 290.257 271.017C285.223 271.571 280.471 273.766 275.449 274.408Z"/><path fill="#B899E5" d="M239.019 260.342C233.457 255.254 230.152 249.696 233.903 242.264C233.654 244.794 233.556 245.771 232.814 248.187C233.935 248.839 235.385 249.626 236.417 250.365L236.369 249.827C236.675 250.759 237.008 251.871 237.353 252.77C238.214 250.407 239.599 247.941 240.785 245.695C241.144 246.528 241.497 247.243 241.64 248.146C239.714 253.229 239.457 255.043 239.019 260.342Z"/><path fill="#9059AD" d="M272.401 108.964C273.831 110.24 276.333 109.725 278.015 110.319C277.921 112.786 277.871 115.254 277.865 117.723L277.783 117.561C276.183 114.342 277.412 113.607 276.481 112.228C275.285 111.945 274.006 112.057 272.772 112.103C272.77 115.468 272.856 115.841 272.018 119.061C271.629 116.3 272.112 111.824 272.401 108.964Z"/><path fill="#FCCCE3" d="M282.742 143.349L283.665 143.119C284.76 144.28 284.786 145.761 284.965 147.429L283.553 148.598C283.112 146.725 282.96 145.248 282.742 143.349Z"/><path fill="#FCE1DB" d="M162.329 85.6807C164.147 85.1679 166.534 84.6972 168.401 84.4933C189.474 82.192 203.055 72.2352 212.733 53.4182C218.074 66.5505 220.457 70.6918 230.198 81.1182L237.111 87.0198C240.273 89.3093 243.556 91.6421 247.124 93.2616L246.203 96.8735C243.682 109.198 243.497 118.31 244.747 130.754C245.451 137.753 239.248 146 233.877 150.283C231.643 154.273 213.575 166.426 208.425 168.282C202.249 170.509 196.241 172.143 189.984 169.155C179.531 164.162 166.212 151.241 161.911 140.778C160.859 138.145 160.032 135.427 159.44 132.654C158.799 129.656 156.312 110.933 157.082 109.094C158.192 108.456 158.038 108.72 159.679 109.106C162.929 107.162 168.288 101.947 171.3 105.645C171.549 107.28 171.652 106.703 171.075 108.144C169.72 108.881 169.56 108.609 168.192 107.89C167.077 108.755 168.001 111.675 168.365 112.959L169.564 112.375L169.813 111.096C172.9 111.346 173.485 116.872 178.128 111.012L178.235 110.876L178.933 111.473L179.299 110.749C179.657 111.028 179.717 111.006 179.92 111.373C180.741 108.467 180.131 110.652 182.35 108.548C182.63 108.311 182.47 107.217 182.323 106.919C176.129 94.3502 166.066 98.4869 155.953 102.072C155.467 99.7927 155.188 96.3306 154.927 93.9279C154.792 92.6423 154.839 90.638 154.828 89.292C155.925 87.5258 160.388 86.3046 162.329 85.6807Z"/><path fill="#F7BFDC" d="M162.329 85.6807C164.147 85.1679 166.534 84.6972 168.401 84.4933C189.474 82.192 203.055 72.2352 212.733 53.4182C218.074 66.5505 220.457 70.6918 230.198 81.1182C228.719 81.7205 228.102 81.5984 226.484 81.5016L225.828 81.2544C219.025 72.9288 216.52 71.8253 212.163 60.6773C202.337 72.2736 192.56 83.883 176.28 86.3932C175.658 86.4891 173.26 86.0446 172.435 85.9441C172.292 86.1273 172.031 86.4229 171.96 86.6204C170.682 86.5267 169.334 86.5098 168.049 86.4722C166.762 86.4675 165.368 86.5591 164.073 86.6181L162.329 85.6807Z"/><defs><linearGradient id="gradient_15" gradientUnits="userSpaceOnUse" x1="158.11745" y1="93.378281" x2="180.34143" y2="89.375206"><stop offset="0" stop-color="#DF91B7"/><stop offset="1" stop-color="#FCC3D4"/></linearGradient></defs><path fill="url(#gradient_15)" d="M154.828 89.292C155.925 87.5258 160.388 86.3046 162.329 85.6807L164.073 86.6181C165.368 86.5591 166.762 86.4675 168.049 86.4722C169.334 86.5098 170.682 86.5267 171.96 86.6204C174.669 87.4643 181.521 89.7088 181.782 93.0697C181.527 93.4891 181.256 94.1059 180.668 94.0957C172.139 93.9489 165.177 91.718 156.525 93.411L154.927 93.9279C154.792 92.6423 154.839 90.638 154.828 89.292Z"/><path fill="#DA8AC1" d="M154.828 89.292C155.925 87.5258 160.388 86.3046 162.329 85.6807L164.073 86.6181C165.368 86.5591 166.762 86.4675 168.049 86.4722C166.809 89.9869 158.753 88.6607 156.525 93.411L154.927 93.9279C154.792 92.6423 154.839 90.638 154.828 89.292Z"/><path fill="#EFA1C5" d="M154.828 89.292C155.925 87.5258 160.388 86.3046 162.329 85.6807L164.073 86.6181C161.672 87.0685 155.816 89.2698 154.828 89.292Z"/><defs><linearGradient id="gradient_16" gradientUnits="userSpaceOnUse" x1="224.69031" y1="91.399948" x2="205.59192" y2="84.26432"><stop offset="0" stop-color="#E092BF"/><stop offset="1" stop-color="#FECBD9"/></linearGradient></defs><path fill="url(#gradient_16)" d="M225.828 81.2544L226.484 81.5016L225.138 81.9324C224.874 84.5752 226.845 84.5709 227.017 87.2854C218.604 88.2524 211.767 91.1205 203.73 93.2228C203.185 93.3654 202.724 92.7408 202.389 92.3705C202.368 90.8052 203.263 89.7807 204.224 88.6355C209.599 82.2303 218.03 81.3549 225.828 81.2544Z"/><defs><linearGradient id="gradient_17" gradientUnits="userSpaceOnUse" x1="245.22449" y1="122.95048" x2="238.82617" y2="122.06332"><stop offset="0" stop-color="#F3ACA9"/><stop offset="1" stop-color="#FBD0CE"/></linearGradient></defs><path fill="url(#gradient_17)" d="M240.956 95.2622C244.083 96.6156 244.401 95.4694 246.203 96.8735C243.682 109.198 243.497 118.31 244.747 130.754C245.451 137.753 239.248 146 233.877 150.283C234.224 149.161 234.748 148.777 235.286 147.585C234.15 147.682 234.083 148.179 233.053 149.273L232.643 149.153C236.262 143.426 241.712 140.69 241.796 132.174C241.847 126.957 240.492 122.35 240.824 117.05C241.086 112.866 243.685 100.37 242.644 96.779L241.144 96.0524L240.956 95.2622Z"/><path fill="#FAF8FA" d="M159.679 109.106C162.929 107.162 168.288 101.947 171.3 105.645C171.549 107.28 171.652 106.703 171.075 108.144C169.72 108.881 169.56 108.609 168.192 107.89C167.077 108.755 168.001 111.675 168.365 112.959C169.338 114.983 169.601 115.373 171.127 117.019C167.565 118.83 160.534 112.91 159.679 109.106Z"/><path fill="#DA8AC1" d="M230.198 81.1182L237.111 87.0198L235.812 87.5768C233.148 87.0992 229.775 87.2538 227.017 87.2854C226.845 84.5709 224.874 84.5752 225.138 81.9324L226.484 81.5016C228.102 81.5984 228.719 81.7205 230.198 81.1182Z"/><path fill="#9059AD" d="M178.933 111.473L179.299 110.749C179.657 111.028 179.717 111.006 179.92 111.373C178.708 116.25 176.456 118.352 171.294 117.061L171.127 117.019C169.601 115.373 169.338 114.983 168.365 112.959L169.564 112.375L169.813 111.096C172.9 111.346 173.485 116.872 178.128 111.012L178.235 110.876L178.933 111.473Z"/><path fill="#4C2573" d="M178.933 111.473L179.299 110.749C179.657 111.028 179.717 111.006 179.92 111.373C178.708 116.25 176.456 118.352 171.294 117.061L171.127 117.019C169.601 115.373 169.338 114.983 168.365 112.959L169.564 112.375C172.096 118.563 176.85 117.214 178.933 111.473Z"/><path fill="#F7BFDC" d="M237.111 87.0198C240.273 89.3093 243.556 91.6421 247.124 93.2616L246.203 96.8735C244.401 95.4694 244.083 96.6156 240.956 95.2622C239.602 93.8111 236.991 89.4402 235.812 87.5768L237.111 87.0198Z"/><path fill="#542F7D" d="M207.597 108.919C206.583 108.387 206.318 108.313 205.849 107.258C205.856 99.4754 219.994 91.6358 227.284 94.8969C232.614 97.2807 236.609 98.37 242.402 97.4755C240.303 100.61 238.986 101.656 235.953 103.925L234.659 106.095C233.473 108.946 231.157 113.557 227.579 113.13C224.472 115.605 222.761 116.335 218.822 114.675L218.049 115.401C213.988 116.018 209.959 111.789 207.597 108.919Z"/><path fill="#9059AD" d="M216.4 108.307C219.146 108.849 220.673 112.966 224.105 111.565C225.752 110.892 226.398 109.263 227.728 108.47L227.996 108.744L228.895 109.859L227.579 113.13C224.472 115.605 222.761 116.335 218.822 114.675C217.041 112.946 216.657 112.23 215.613 110.089L216.4 108.307Z"/><path fill="#4C2573" d="M216.4 108.307C218.994 116.383 226.503 116.394 227.996 108.744L228.895 109.859L227.579 113.13C224.472 115.605 222.761 116.335 218.822 114.675C217.041 112.946 216.657 112.23 215.613 110.089L216.4 108.307Z"/><path fill="#FAF8FA" d="M210.55 106.379C211.164 107.433 211.28 107.517 212.405 107.953C213.751 107.986 213.914 107.928 215.135 107.352L215.613 110.089C216.657 112.23 217.041 112.946 218.822 114.675L218.049 115.401C213.988 116.018 209.959 111.789 207.597 108.919L210.55 106.379Z"/><path fill="#FAF8FA" d="M229.466 106.161C230.648 105.882 232.22 106.695 234.659 106.095C233.473 108.946 231.157 113.557 227.579 113.13L228.895 109.859L229.466 106.161Z"/><path fill="#FAF8FA" d="M214.391 102.975C216.9 102.127 218.203 101.913 219.39 104.539C219.214 106.116 219.476 105.599 218.447 106.681C216.908 106.895 216.497 106.5 215.383 105.395C215.316 105.081 214.563 103.378 214.391 102.975Z"/><path fill="#F2E7F3" d="M229.466 106.161C229.373 105.211 229.176 104.338 229.675 103.529C230.603 103.162 234.087 103.857 235.953 103.925L234.659 106.095C232.22 106.695 230.648 105.882 229.466 106.161Z"/><path fill="#F2E7F3" d="M214.391 102.975C214.563 103.378 215.316 105.081 215.383 105.395L215.135 107.352C213.914 107.928 213.751 107.986 212.405 107.953C211.28 107.517 211.164 107.433 210.55 106.379C211.938 105.244 213.086 104.19 214.391 102.975Z"/><path fill="#F7BFDC" d="M208.46 144.989C209.502 144.386 209.882 143.89 210.836 144.055C209.865 145.767 207.957 146.539 206.234 147.335C205.138 152.165 200.26 153.801 196.207 155.932C192.314 154.244 188.117 152.873 186.355 148.695C185.188 148.109 184.734 147.628 183.766 146.747C185.624 145.427 205.554 144.558 208.46 144.989Z"/><path fill="#F7BFDC" d="M186.355 148.695C194.053 151.083 198.849 150.098 206.234 147.335C205.138 152.165 200.26 153.801 196.207 155.932C192.314 154.244 188.117 152.873 186.355 148.695Z"/><path fill="#261441" d="M208.46 144.989C209.502 144.386 209.882 143.89 210.836 144.055C209.865 145.767 207.957 146.539 206.234 147.335C198.849 150.098 194.053 151.083 186.355 148.695C185.188 148.109 184.734 147.628 183.766 146.747C185.502 146.515 186.655 147.696 188.238 148.15C195.52 150.237 202.089 148.271 208.46 144.989Z"/><path fill="#EFA1C5" d="M188.884 130.846C191.049 131.996 192.442 130.422 194.608 132.181L194.403 132.971C190.796 136.186 182.932 135.365 182.853 129.426C182.819 126.928 184.988 120.158 187.85 120.093C188.533 121.283 188.086 122.917 187.877 124.329L188.743 124.724C189.289 126.458 189.525 129.12 188.884 130.846Z"/><path fill="#FAF8FA" d="M187.877 124.329L188.743 124.724C189.289 126.458 189.525 129.12 188.884 130.846C188.078 130.345 187.951 130.178 187.326 129.457C186.798 127.913 187.481 125.977 187.877 124.329Z"/><path fill="#FCCCE3" d="M172.489 29.0119C186.757 21.071 206.804 14.8934 220.909 26.4574C222.379 26.2275 224.115 25.9283 225.584 25.8653C243.373 25.1026 259.824 42.7848 263.948 58.8858C265.615 62.571 267.097 68.5703 268.093 72.5236C263.259 73.7654 261.387 74.3759 257.402 77.4373C254.33 72.662 251.7 69.396 247.748 65.342L245.514 63.22C244.205 62.147 242.856 61.0043 241.516 59.9799L244.632 64.1617C249.058 69.9336 251.202 75.6694 252.792 82.6476L250.043 88.0927C236.049 80.9953 221.772 65.8962 218.323 50.3457C217.48 48.8429 216.641 42.7694 216.339 40.7694C214.777 40.0927 215.223 40.0213 213.748 40.2958C211.444 42.4916 210.309 48.7085 206.92 52.9093C205.592 54.8779 201.298 60.5458 199.491 61.9147C191.862 70.6333 185.562 73.8398 174.804 77.0297C177.696 74.639 179.834 72.427 182.444 70.1985C188.169 63.1516 192.262 57.8376 195.014 48.9096C188.171 58.9694 183.781 63.9235 173.458 70.884C160.093 79.2872 146.724 80.9661 137.257 92.9746L139.425 80.7104C140.427 76.7079 141.557 73.1032 142.794 69.1673C143.587 61.3702 150.911 53.5165 150.655 49.0416L150.433 48.9866C149.244 51.1614 148.088 53.3538 146.965 55.5631L146.436 55.6505C146.466 53.8946 150.306 46.5688 151.359 44.861C154.047 40.5036 163.508 29.7618 168.341 28.9294C168.181 29.5607 168.015 30.1907 167.845 30.8193C169.276 30.9247 170.525 28.7774 172.489 29.0119Z"/><defs><linearGradient id="gradient_18" gradientUnits="userSpaceOnUse" x1="232.85335" y1="80.172897" x2="239.34549" y2="63.731056"><stop offset="0" stop-color="#F190C5"/><stop offset="1" stop-color="#FDB5DB"/></linearGradient></defs><path fill="url(#gradient_18)" d="M218.323 50.3457C220.377 52.2793 219.453 52.8063 221.139 54.8166L220.856 53.8004C221.839 55.5313 226.138 63.0537 227.537 63.9386C230.726 68.7567 239.277 78.7267 245.204 79.4152C248.727 77.7925 244.098 70.7919 243.423 68.0735C243.148 66.9681 244.168 65.1836 244.632 64.1617C249.058 69.9336 251.202 75.6694 252.792 82.6476L250.043 88.0927C236.049 80.9953 221.772 65.8962 218.323 50.3457Z"/><path fill="#F7BFDC" d="M263.948 58.8858C265.615 62.571 267.097 68.5703 268.093 72.5236C263.259 73.7654 261.387 74.3759 257.402 77.4373C254.33 72.662 251.7 69.396 247.748 65.342C249.825 65.9088 253.396 66.6774 255.391 65.7239C256.305 64.3661 255.739 63.778 255.761 61.6437C255.926 61.3789 256.123 61.0641 256.35 60.6995C258.431 60.2014 262.02 59.3937 263.948 58.8858Z"/><defs><linearGradient id="gradient_19" gradientUnits="userSpaceOnUse" x1="243.25255" y1="78.103516" x2="237.83302" y2="67.489029"><stop offset="0" stop-color="#F8B3D4"/><stop offset="1" stop-color="#FDD2E7"/></linearGradient></defs><path fill="url(#gradient_19)" d="M227.537 63.9386C229.147 63.623 232.609 70.5784 234.326 70.607C236.717 70.647 238.751 66.5825 240.017 65.0004C240.034 64.9789 242.159 64.246 242.551 64.0551C242.963 62.3134 241.371 62.4791 240.989 60.2069L241.501 59.738C243.218 59.5223 244.554 61.555 245.776 61.8415C247.08 62.147 249.751 62.3155 251.12 62.4118L251.259 63.3491L251.391 62.4491L251.465 63.3218L252.534 63.0837C250.314 63.6421 247.896 63.2985 245.514 63.22C244.205 62.147 242.856 61.0043 241.516 59.9799L244.632 64.1617C244.168 65.1836 243.148 66.9681 243.423 68.0735C244.098 70.7919 248.727 77.7925 245.204 79.4152C239.277 78.7267 230.726 68.7567 227.537 63.9386Z"/><path fill="#DA8AC1" d="M139.425 80.7104C139.634 83.2487 141.358 82.1371 143.167 81.3821C148.886 78.9958 154.755 76.9805 160.624 75.005C164.7 73.6333 169.223 70.408 173.458 70.884C160.093 79.2872 146.724 80.9661 137.257 92.9746L139.425 80.7104Z"/><path fill="#9059AD" d="M142.794 69.1673C143.587 61.3702 150.911 53.5165 150.655 49.0416L150.433 48.9866C149.244 51.1614 148.088 53.3538 146.965 55.5631L146.436 55.6505C146.466 53.8946 150.306 46.5688 151.359 44.861C154.047 40.5036 163.508 29.7618 168.341 28.9294C168.181 29.5607 168.015 30.1907 167.845 30.8193C169.276 30.9247 170.525 28.7774 172.489 29.0119C170.042 31.5177 165.845 33.7186 163.114 36.3511C153.696 45.4299 147.774 57.2515 142.794 69.1673Z"/><path fill="#F7BFDC" d="M182.444 70.1985C182.749 70.3942 183.214 70.5771 183.557 70.7301C192.859 68.2714 194.295 64.1089 199.491 61.9147C191.862 70.6333 185.562 73.8398 174.804 77.0297C177.696 74.639 179.834 72.427 182.444 70.1985Z"/><path fill="#EFA1C5" d="M206.92 52.9093C206.743 50.1368 209.994 40.8464 211.359 38.3703L211.68 38.7458C211.509 39.5441 211.384 40.1988 211.264 41.0131C211.72 40.4087 211.853 40.0921 212.187 39.4084C213.803 38.5654 214.863 38.8658 216.334 39.8342L216.339 40.7694C214.777 40.0927 215.223 40.0213 213.748 40.2958C211.444 42.4916 210.309 48.7085 206.92 52.9093Z"/><path fill="#C5ACF3" d="M170.532 206.572L174.558 204.999C174.461 222.571 189.033 228.48 204.64 228.479C216.492 228.491 228.048 224.774 237.672 217.853C237.218 219.936 236.618 222.796 235.784 224.705C231.045 235.557 224.827 239.38 226.489 252.084C226.612 252.532 226.75 252.976 226.902 253.415C229.481 260.889 233.623 264.87 240.609 268.274L243.061 272.945C212.873 276.451 177.236 276.486 148.077 267.411C173.478 239.465 152.148 223.979 158.54 212.341C160.361 209.028 164.275 208.441 167.595 207.494L170.532 206.572Z"/><path fill="#A888D7" d="M167.595 207.494L167.948 208.323C168.316 208.132 168.61 207.939 169.019 207.886L168.827 208.516C166.052 209.901 163.976 216.378 163.845 219.309C163.513 226.742 165.346 233.495 165.177 241.009L164.799 244.304C163.313 249.208 161.631 253.608 158.992 258.063C157.428 260.703 153.995 264.261 153.051 267.063C152.412 267.265 152.105 267.429 151.504 267.728C153.113 267.959 153.606 268.142 155.377 268.638C175.748 274.337 197.906 274.406 218.898 274.026C223.079 273.95 240.547 273.045 241.575 271.814C240.198 267.429 224.515 261.403 226.489 252.084C226.612 252.532 226.75 252.976 226.902 253.415C229.481 260.889 233.623 264.87 240.609 268.274L243.061 272.945C212.873 276.451 177.236 276.486 148.077 267.411C173.478 239.465 152.148 223.979 158.54 212.341C160.361 209.028 164.275 208.441 167.595 207.494Z"/><path fill="#B899E5" d="M164.799 244.304C164.706 246.14 164.511 248.723 164.188 250.447C163.414 254.573 156.044 264.266 153.051 267.063C153.995 264.261 157.428 260.703 158.992 258.063C161.631 253.608 163.313 249.208 164.799 244.304Z"/><path fill="#FCE1DB" d="M234.218 159.001L233.696 168.998C228.535 170.79 226.26 173.181 225.466 178.605L226.165 181.38C228.38 185.246 228.994 185.683 233.383 186.438C234.506 193.447 236.804 199.915 237.645 206.921C234.849 209.909 231.15 213.389 227.45 215.243C217.868 220.391 206.981 222.623 196.196 220.844C189.343 219.855 180.018 213.428 181.108 205.595C182.088 200.668 186.978 199.589 190.495 197.407C193.385 195.614 194.471 190.467 194.944 187.508C195.225 184.677 195.27 181.716 195.36 178.865C211.39 180.697 223.417 169.365 234.218 159.001Z"/><defs><linearGradient id="gradient_20" gradientUnits="userSpaceOnUse" x1="210.40305" y1="168.23686" x2="220.08498" y2="180.46143"><stop offset="0" stop-color="#F0A4AC"/><stop offset="1" stop-color="#F8C3C1"/></linearGradient></defs><path fill="url(#gradient_20)" d="M234.218 159.001L233.696 168.998C228.535 170.79 226.26 173.181 225.466 178.605C224.805 178.197 224.192 177.656 223.374 178.066C213.512 182.998 206.287 186.618 194.944 187.508C195.225 184.677 195.27 181.716 195.36 178.865C211.39 180.697 223.417 169.365 234.218 159.001Z"/><path fill="#F7BFDC" d="M226.165 181.38C228.38 185.246 228.994 185.683 233.383 186.438C234.506 193.447 236.804 199.915 237.645 206.921C234.849 209.909 231.15 213.389 227.45 215.243C225.638 211.897 229.425 208.99 229.735 205.601C230.502 197.237 225.104 189.43 226.165 181.38Z"/><path fill="#C5ACF3" d="M140.485 58.5291C147.088 38.6564 156.039 25.2238 175.458 15.5305C216.309 -4.8613 273.501 13.5979 282.607 61.8085L276.003 61.9177C270.468 43.3276 261.609 30.0555 244.198 20.3122C227.629 11.0411 206.871 10.2167 188.82 15.585C169.919 21.3631 154.053 34.3541 144.654 51.747C143.382 54.0674 142.251 56.4627 141.268 58.9198L140.485 58.5291Z"/><path fill="#DA8AC1" d="M172.622 164.339C178.128 168.689 183.689 172.388 189.85 175.747C189.891 180.157 189.953 184.622 189.226 188.982C185.567 192.524 180.478 194.303 175.901 196.346C171.685 198.308 167.294 199.886 162.899 201.392C170.196 190.238 173.521 177.63 172.622 164.339Z"/><defs><linearGradient id="gradient_21" gradientUnits="userSpaceOnUse" x1="153.48787" y1="114.80917" x2="135.30193" y2="112.10715"><stop offset="0" stop-color="#8161B7"/><stop offset="1" stop-color="#AB91DD"/></linearGradient></defs><path fill="url(#gradient_21)" d="M145.074 92.4526L145.615 92.6112C144.444 104.501 143.617 115.576 147.904 127.021C149.052 130.085 151.446 132.898 152.18 135.09C152.092 135.146 152.006 135.207 151.915 135.258C150.784 135.897 147.784 134.884 146.532 134.52C145.791 133.846 145.041 133.149 144.395 132.382C137.5 124.196 135.698 110.413 136.627 100.133C138.878 96.7884 141.8 94.699 145.074 92.4526Z"/><defs><linearGradient id="gradient_22" gradientUnits="userSpaceOnUse" x1="132.41763" y1="249.18726" x2="115.06584" y2="247.91316"><stop offset="0" stop-color="#AD93E6"/><stop offset="1" stop-color="#D8C2F8"/></linearGradient></defs><path fill="url(#gradient_22)" d="M118.838 236.091C118.91 236.151 118.985 236.209 119.054 236.272C123.125 240.024 132.969 253.137 133.164 258.37C133.202 259.393 133.059 259.851 132.382 260.594C130.991 260.73 130.343 260.301 129.103 259.757C123.629 257.225 118.213 253.754 114.186 249.243C115.095 244.684 116.782 240.247 118.838 236.091Z"/><path fill="#DA8AC1" d="M252.584 142.409C256.259 145.357 259.214 147.118 263.931 147.672C260.149 153.792 255.45 158.749 249.76 163.124C247.414 164.91 244.635 165.871 241.902 166.883C244.462 158.073 249.385 150.839 252.584 142.409Z"/><path fill="#C5ACF3" d="M236.706 179.682C235.007 180.623 234.121 181.525 232.536 180.102C231.032 174.334 243.215 171.35 247.51 171.915C247.721 173.227 248.157 174.907 247.694 176.092C244.843 177.434 239.928 178.594 236.706 179.682Z"/><path fill="#B899E5" d="M247.51 171.915C247.721 173.227 248.157 174.907 247.694 176.092C244.843 177.434 239.928 178.594 236.706 179.682L236.488 179.161L235.924 179.119L235.773 178.841C239.317 177.054 243.225 175.609 246.593 173.553C246.595 173.551 247.422 172.073 247.51 171.915Z"/><path fill="#C5ACF3" d="M271.626 144.549L271.907 145.235C268.651 155.205 259.805 164.182 251.655 170.506C251.527 170.331 251.554 170.407 251.513 170.195C251.287 169.013 254.199 166.829 255.114 165.992C262.21 159.503 266.533 152.544 271.626 144.549Z"/><path fill="#A888D7" d="M141.268 58.9198C141.045 59.8747 140.34 62.0639 139.519 62.5498C139.413 61.0061 139.935 59.9619 140.485 58.5291L141.268 58.9198Z"/><defs><linearGradient id="gradient_23" gradientUnits="userSpaceOnUse" x1="568.83008" y1="302.33429" x2="570.80811" y2="172.1497"><stop offset="0" stop-color="#341452"/><stop offset="1" stop-color="#7249A9"/></linearGradient></defs><path fill="url(#gradient_23)" d="M388.734 188.305C389.056 172.202 393.101 172.439 406.676 171.975C426.998 171.28 417.044 197.314 421.105 199.339L422.219 199.145C426.907 197.812 432.773 197.95 437.538 198.724C448.56 200.902 454.269 207.271 459.19 216.818C461.428 213.386 463.436 210.39 466.386 207.673C481.034 194.184 508.008 194.436 520.468 210.893C521.318 212.016 522.15 212.99 522.957 214.161C523.228 174.765 518.021 173.957 559.778 175.061C575.871 175.487 584.612 177.205 595.98 188.762C597.056 189.859 598.123 190.963 599.183 192.076C599.242 186.907 598.734 179.347 602.817 175.447C606.4 172.024 611.861 171.783 616.524 171.949C620.486 172.089 624.619 172.88 627.448 175.919C632.237 181.063 630.431 205.725 630.387 213.545C633.598 209.939 636.868 206.274 641.115 203.864C655.798 195.533 674.863 195.884 688.749 205.485C690.22 202.671 691.755 200.372 694.939 199.492C699.146 198.329 714.514 198.265 717.808 200.336C724.391 204.476 728.671 224.196 731.668 231.914C733.612 226.597 739.406 200.884 744.941 199.821C753.396 198.196 766.155 196.461 771.398 205.042C778.656 200.339 783.625 198.528 792.462 198.115C809.863 197.303 835.191 206.21 817.677 226.732C816.602 227.991 815.411 229.335 814.266 230.599C820.609 235.279 824.283 239.886 825.497 247.83C830.641 281.5 789.198 288.74 767.353 272.731C755.483 264.032 765.186 253.323 772.978 246.447C767.695 241.579 767.078 240.24 763.231 234.15C758.195 248.723 752.478 263.218 746.637 277.548C743.817 284.465 739.341 301.031 732.886 304.766C728.282 307.431 709.061 308.061 706.772 301.331C703.954 293.045 711.195 280.42 714.397 272.525C711.524 262.379 704.145 246.578 700.107 236.475C699.802 242.925 700.053 249.296 700.002 255.652C699.948 262.213 701.752 272.147 696.313 276.851C691.229 281.248 677.394 280.491 672.502 276.056C656.063 283.914 644.01 282.743 630.707 270.479C629.892 273.572 628.303 276.032 625.477 277.701C621.212 280.221 612.71 280.133 608.014 278.865C605.068 278.07 602.686 276.34 601.176 273.662C597.575 267.274 599.435 242.85 599.169 233.879C593.824 240.237 583.865 248.842 575.162 249.217C570.942 250.309 560.371 251.143 556.444 250.187C556.561 257 557.685 267.921 554.703 274.169C553.633 276.411 549.379 278.91 546.714 279.227C535.835 280.521 525.092 280.351 522.688 267.435C522.32 267.814 521.94 268.181 521.55 268.537C503.125 285.568 478.994 284.548 462.102 266.055C461.585 274.307 458.478 278.268 450.234 279.519C443.708 280.184 432.888 279.843 430.556 272.11C429.489 268.574 429.763 264.093 429.786 260.428C429.84 251.398 429.854 242.267 429.622 233.255C429.564 231.005 427.648 226.916 424.861 227.611C418.581 229.178 419.625 236.164 419.562 241.118C419.602 247.228 419.676 253.56 419.827 259.647C420.137 268.159 420.728 277.2 410.155 279.188C402.952 280.543 392.406 280.346 389.526 272.011C388.903 270.208 388.787 268.098 388.616 266.223C373.576 282.332 352.757 285.138 332.628 275.854C324.405 272.062 310.795 257.72 315.653 247.932C317.902 243.399 331.016 239.062 336.002 237.593C327.165 231.415 319.443 225.759 316.892 214.562C314.973 206.025 316.555 197.075 321.285 189.715C326.115 182.223 333.682 176.919 342.369 174.935C350.095 172.736 358.262 172.597 366.058 174.531C375.949 176.294 381.845 181.693 388.734 188.305Z"/><path fill="#411765" d="M342.369 174.935C350.095 172.736 358.262 172.597 366.058 174.531C359.619 174.53 353.207 174.474 346.787 175.023C345.195 175.16 343.962 175.205 342.369 174.935Z"/><path fill="#4C2573" d="M422.219 199.145C426.907 197.812 432.773 197.95 437.538 198.724C433.639 199.776 425.927 200.644 422.219 199.145Z"/><path fill="#261441" d="M556.444 250.187C558.329 249.095 572.081 249.27 575.162 249.217C570.942 250.309 560.371 251.143 556.444 250.187Z"/><defs><linearGradient id="gradient_24" gradientUnits="userSpaceOnUse" x1="540.83905" y1="267.91129" x2="570.43274" y2="183.2406"><stop offset="0" stop-color="#F5B2D8"/><stop offset="1" stop-color="#FFDBE7"/></linearGradient></defs><path fill="url(#gradient_24)" d="M530.693 193.7C530.645 191.337 530.221 185.881 532.228 184.423C536.642 181.216 546.148 183.229 551.666 182.741C572.182 180.927 597.394 186.64 597.499 212.36C597.552 220.304 594.441 227.942 588.853 233.586C578.218 244.3 563.041 242.714 548.976 242.715C549.109 243.667 549.164 244.657 549.179 245.619C549.245 249.724 550.129 268.29 547.885 270.486C545.978 272.352 540.419 272.007 537.804 271.946C535.762 271.898 533.165 271.678 531.734 270.027C529.906 267.919 530.445 202.984 530.693 193.7Z"/><path fill="#DA8AC1" d="M530.693 193.7C531.264 197.687 531.015 208.83 531 213.297C530.959 223.341 530.968 233.385 531.027 243.429C531.062 250.452 530.963 257.971 531.644 264.935C538.463 264.579 541.638 264.569 548.169 266.15C548.315 259.811 548.792 253.455 548.695 247.092C548.673 245.618 548.743 244.174 548.976 242.715C549.109 243.667 549.164 244.657 549.179 245.619C549.245 249.724 550.129 268.29 547.885 270.486C545.978 272.352 540.419 272.007 537.804 271.946C535.762 271.898 533.165 271.678 531.734 270.027C529.906 267.919 530.445 202.984 530.693 193.7Z"/><path fill="#673D95" d="M550.247 198.553C557.683 198.771 569.235 196.744 575.061 202.26C577.8 204.853 578.731 208.514 578.864 212.156C579.031 216.749 577.72 220.106 574.63 223.46C567.796 228.421 556.909 226.806 548.851 226.784C548.87 221.617 547.924 202.427 549.233 198.849L550.247 198.553Z"/><defs><linearGradient id="gradient_25" gradientUnits="userSpaceOnUse" x1="352.96432" y1="266.31268" x2="358.62857" y2="181.28693"><stop offset="0" stop-color="#EFA8D4"/><stop offset="1" stop-color="#FFDFE8"/></linearGradient></defs><path fill="url(#gradient_25)" d="M336.75 246.035C341.484 251.794 345.606 256.574 353.466 257.367C357.705 257.795 362.577 257.296 365.952 254.438C368.078 252.638 369.691 249.978 369.911 247.166C370.103 244.72 369.338 242.432 367.695 240.61C357.942 229.795 322.783 235.325 323.833 205.652C324.06 199.241 327.434 192.959 332.106 188.651C338.65 182.617 348.427 180.274 357.144 180.687C366.048 181.109 375.049 184.368 381.11 191.113C383.412 193.676 386.65 198.329 386.482 201.949C386.449 202.658 386.365 203.072 385.81 203.573C383.668 205.506 374.781 206.814 371.66 207.138C366.664 201.774 364.999 196.344 356.518 196.048C352.271 195.899 348.11 196.781 344.943 199.795C343.125 201.524 342.176 203.82 342.12 206.322C342.068 208.652 342.782 210.712 344.418 212.393C354.032 222.277 387.741 217.167 387.838 244.091C387.858 249.69 386.385 257.183 382.256 261.326C372.057 278.619 335.504 276.616 324.801 258.858C323.931 257.518 322.079 254.766 322.481 253.262C323.569 249.188 333.155 247.035 336.75 246.035Z"/><path fill="#DA8AC1" d="M324.801 258.858C326.877 259.666 326.717 260.572 328.126 261.424C328.87 261.875 331.749 261.747 332.697 262.318C341.772 265.79 352.762 266.669 362.447 266.564C364.635 266.54 369.236 265.248 371.632 264.857C373.283 264.587 376.803 265.364 377.564 265.018C379.14 264.3 379.728 262.155 382.256 261.326C372.057 278.619 335.504 276.616 324.801 258.858Z"/><defs><linearGradient id="gradient_26" gradientUnits="userSpaceOnUse" x1="661.09186" y1="268.68619" x2="668.99548" y2="206.21974"><stop offset="0" stop-color="#F2A8D5"/><stop offset="1" stop-color="#FFDEE9"/></linearGradient></defs><path fill="url(#gradient_26)" d="M637.428 216.716C644.654 208.9 651.716 206.193 662.239 205.544C678.89 204.517 692.253 213.222 692.245 230.917C692.243 236.867 692.236 243.122 692.168 249.102C692.094 252.868 692.46 258.999 692.182 262.514C692.398 265.07 693.034 268.159 691.25 270.296C690.146 271.619 688.533 272.119 686.867 272.257C683.93 272.5 680.723 271.85 678.082 270.575C676.6 269.068 677.3 265.055 677.112 263.074L675.846 263.877C664.945 276.349 638.74 277.759 633.408 259.236C630.05 247.417 636.793 238.035 648.232 235.106C657.354 232.771 666.799 233.465 676.14 233.426C672.838 210.706 657.564 219.74 646.254 226.233C644.28 227.366 638.635 218.953 637.428 216.716Z"/><path fill="#DA8AC1" d="M633.408 259.236C635.064 261.101 635.534 262.187 636.659 264.413C641.886 264.12 642.292 266.117 644.102 266.295C650.799 266.954 656.123 269.022 662.552 267.284L662.843 267.584L662.203 268.31C663.337 268.316 667.886 268.385 668.734 268.161C671.276 267.489 672.925 264.305 675.846 263.877C664.945 276.349 638.74 277.759 633.408 259.236Z"/><path fill="#DA8AC1" d="M692.182 262.514C692.398 265.07 693.034 268.159 691.25 270.296C690.146 271.619 688.533 272.119 686.867 272.257C683.93 272.5 680.723 271.85 678.082 270.575C676.6 269.068 677.3 265.055 677.112 263.074C678.133 264.331 677.563 265.037 678.28 266.178C681.414 266.616 684.783 266.865 687.861 267.571C689.035 267.841 689.967 269.005 691.147 268.808C692.098 267.678 692.038 264.064 692.182 262.514Z"/><path fill="#4C2573" d="M661.52 243.791C666.336 243.817 671.151 243.805 675.967 243.756L675.794 252.369C672.259 256.029 669.11 258.176 664.295 259.855C663.771 259.965 663.247 260.045 662.715 260.108C659.002 260.548 655.232 260.482 652.171 257.984C650.526 256.642 649.435 254.726 649.276 252.594C649.125 250.605 649.815 248.644 651.178 247.187C653.964 244.161 657.709 243.965 661.52 243.791Z"/><defs><linearGradient id="gradient_27" gradientUnits="userSpaceOnUse" x1="416.82101" y1="269.08368" x2="432.10944" y2="184.34203"><stop offset="0" stop-color="#F3A9D4"/><stop offset="1" stop-color="#FFE7EC"/></linearGradient></defs><path fill="url(#gradient_27)" d="M395.775 259.264L395.698 212.1C395.708 203.394 395.709 194.681 395.84 185.987C395.953 178.527 398.808 179.651 404.949 179.406C407.084 179.32 409.865 179.48 411.344 181.176C412.788 184.612 412.292 209.604 411.913 214.427C417.233 208.18 422.487 205.398 430.928 205.483C437.225 205.546 443.108 207.71 447.574 212.252C454.883 219.686 454.318 229.674 454.179 239.343C454.125 243.806 455.101 268.31 453.148 270.223C451.276 272.055 447.334 272.022 444.867 271.964C443.171 271.924 439.812 271.793 438.57 270.529C436.937 268.867 437.656 262.412 437.724 260.053C437.639 250.443 438.279 238.857 437.101 229.413C435.476 216.388 414.324 217.416 412.432 230.345C411.082 239.846 412.162 250.616 411.893 260.382C412.228 263.259 412.566 267.778 411.24 270.31C408.5 272.651 399.697 272.405 396.718 270.36C395.158 268.266 395.719 262.078 395.775 259.264Z"/><path fill="#DA8AC1" d="M437.724 260.053C438.836 262.36 437.817 262.945 439.202 264.379C443.292 264.66 450.228 267.264 453.33 266.517C453.127 263.948 453.676 264.069 453.801 261.635C454.083 256.154 453.147 244.252 454.15 239.476L454.179 239.343C454.125 243.806 455.101 268.31 453.148 270.223C451.276 272.055 447.334 272.022 444.867 271.964C443.171 271.924 439.812 271.793 438.57 270.529C436.937 268.867 437.656 262.412 437.724 260.053Z"/><path fill="#DA8AC1" d="M395.775 259.264L396.782 265.444C397.802 265.829 410.18 264.344 411.153 264.512C411.766 263.35 410.829 262.615 411.893 260.382C412.228 263.259 412.566 267.778 411.24 270.31C408.5 272.651 399.697 272.405 396.718 270.36C395.158 268.266 395.719 262.078 395.775 259.264Z"/><path fill="#FCCCE3" d="M461.851 246.684C459.779 241.016 461.704 228.246 464.428 222.426C467.712 215.315 473.733 209.837 481.119 207.237C488.977 204.448 498.215 204.647 505.828 208.207C519.235 214.476 523.037 230.721 520.232 244.276C507.716 244.922 490.468 244.413 477.423 244.434C480.442 255.527 486.681 261.215 498.681 258.542C506.05 256.9 507.98 248.183 513.966 255.647C515.274 257.271 516.666 259.421 517.865 261.176C517.636 261.468 517.404 261.759 517.17 262.047C500.589 282.406 464.425 272.69 461.851 246.684Z"/><defs><linearGradient id="gradient_28" gradientUnits="userSpaceOnUse" x1="491.72534" y1="272.19739" x2="490.53851" y2="253.32227"><stop offset="0" stop-color="#D082BE"/><stop offset="1" stop-color="#F6A6D3"/></linearGradient></defs><path fill="url(#gradient_28)" d="M461.851 246.684C463.484 248.504 463.309 251.748 464.663 253.722C464.809 253.936 467.407 254.145 467.649 254.368C481.348 266.93 496.491 268.599 511.922 258.088C512.604 257.624 513.806 256.588 513.966 255.647C515.274 257.271 516.666 259.421 517.865 261.176C517.636 261.468 517.404 261.759 517.17 262.047C500.589 282.406 464.425 272.69 461.851 246.684Z"/><path fill="#673D95" d="M477.362 232.699C478.471 226.778 480.544 221.648 486.435 219.113C493.493 216.075 501.324 219.449 504.246 226.471C505.181 228.804 505.739 230.145 505.566 232.757C497.332 232.319 485.84 232.685 477.362 232.699Z"/><path fill="#4C2573" d="M505.566 232.757C505.065 232.562 504.608 232.279 504.139 232.013C503.637 230.52 504.132 228.306 504.246 226.471C505.181 228.804 505.739 230.145 505.566 232.757Z"/><defs><linearGradient id="gradient_29" gradientUnits="userSpaceOnUse" x1="733.73688" y1="272.71286" x2="730.34631" y2="205.62012"><stop offset="0" stop-color="#F0A7D4"/><stop offset="1" stop-color="#FFE0EA"/></linearGradient></defs><path fill="url(#gradient_29)" d="M748.17 206.558C752.303 206.397 760.752 205.642 764.188 207.343L764.724 208.073C763.637 213.244 759.141 223.979 757.09 229.266L743.442 264.524C741.404 270.104 731.987 296.622 728.481 298.87C726.678 300.017 722.06 299.39 719.87 299.356C718.134 301.098 715.526 302.23 713.337 303.311C711.732 301.316 709.972 299.264 708.849 296.942C708.357 295.924 708.298 295.378 708.659 294.332C710.367 293.745 711.908 294.385 713.529 295.063C716.464 287.459 719.626 279.971 722.659 272.407C721.019 268.303 719.435 264.177 717.909 260.029C711.514 244.118 705.25 228.197 698.309 212.514C697.656 211.041 697.014 209.584 696.693 207.999C697.085 207.384 697.46 206.768 698.339 206.708C702.484 206.427 710.739 205.596 714.302 207.288C716.592 209.465 729.631 248.296 731.98 254.32C735.532 244.227 738.905 234.072 742.097 223.86C743.601 219.199 746.18 210.681 748.17 206.558Z"/><path fill="#DA8AC1" d="M717.909 260.029C720.206 261.747 721.739 267.943 723 270.824C728.047 272.39 733.426 273.959 738.509 271.56C741.399 270.196 740.661 266.362 743.442 264.524C741.404 270.104 731.987 296.622 728.481 298.87C726.678 300.017 722.06 299.39 719.87 299.356C718.134 301.098 715.526 302.23 713.337 303.311C711.732 301.316 709.972 299.264 708.849 296.942C708.357 295.924 708.298 295.378 708.659 294.332C710.367 293.745 711.908 294.385 713.529 295.063C716.464 287.459 719.626 279.971 722.659 272.407C721.019 268.303 719.435 264.177 717.909 260.029Z"/><path fill="#411765" d="M719.87 299.356C718.134 301.098 715.526 302.23 713.337 303.311C711.732 301.316 709.972 299.264 708.849 296.942C708.357 295.924 708.298 295.378 708.659 294.332C710.367 293.745 711.908 294.385 713.529 295.063C713.464 296.312 713.298 296.755 713.972 297.837C717.777 300.226 724.142 297.925 728.481 298.87C726.678 300.017 722.06 299.39 719.87 299.356Z"/><path fill="#FCCCE3" d="M777.735 253.484C783.607 256.526 794.733 263.302 801.021 257.7C802.084 256.75 802.718 255.41 802.778 253.985C803.38 242.378 768.176 247.412 769.609 224.776C771.086 201.422 805.545 201.024 816.591 213.457C815.17 218.101 813.25 220.779 809.751 224.126C803.337 219.976 787.089 213.28 784.995 223.458C783.192 232.226 809.629 231.887 815.062 242.015C817.284 244.552 818.143 247.244 818.514 250.564C821.462 276.959 782.582 278.935 769.368 263.621C769.277 263.515 769.188 263.406 769.1 263.297C769.468 262.622 770.353 260.893 770.804 260.414L772.082 258.603C773.981 256.277 775.258 255.125 777.735 253.484Z"/><defs><linearGradient id="gradient_30" gradientUnits="userSpaceOnUse" x1="793.85309" y1="272.29642" x2="793.90283" y2="252.83679"><stop offset="0" stop-color="#D083BD"/><stop offset="1" stop-color="#EDA6D1"/></linearGradient></defs><path fill="url(#gradient_30)" d="M815.062 242.015C817.284 244.552 818.143 247.244 818.514 250.564C821.462 276.959 782.582 278.935 769.368 263.621C769.277 263.515 769.188 263.406 769.1 263.297C769.468 262.622 770.353 260.893 770.804 260.414L772.082 258.603C785.509 266.562 796.992 269.352 810.39 259.893C812.308 258.291 815.354 254.706 816.716 252.578C818.46 249.851 816.015 245.054 815.062 242.015Z"/><path fill="#EFA1C5" d="M772.082 258.603C785.509 266.562 796.992 269.352 810.39 259.893C809.756 261.727 808.774 261.683 808.551 263.149L809.292 263.145L809.281 263.519C808.892 263.819 808.49 264.101 808.075 264.364C804.402 266.679 790.243 268.302 785.826 266.957C782.784 266.031 772.311 262.854 770.804 260.414L772.082 258.603Z"/><defs><linearGradient id="gradient_31" gradientUnits="userSpaceOnUse" x1="634.08875" y1="263.49081" x2="596.60968" y2="186.80553"><stop offset="0" stop-color="#EFAAD3"/><stop offset="1" stop-color="#FFE3EA"/></linearGradient></defs><path fill="url(#gradient_31)" d="M606.981 230.94C606.948 224.682 606.12 182.945 607.885 181.148C609.375 179.63 611.367 179.446 613.398 179.454C615.625 179.464 620.184 179.135 621.773 180.816C622.574 181.663 622.634 182.652 622.716 183.762C623.485 194.261 622.738 205.183 622.738 215.723C622.739 231.102 623.252 246.669 622.67 262.032C622.666 262.144 622.657 262.256 622.646 262.367C622.68 262.808 622.706 263.25 622.724 263.692C622.81 265.711 623.273 269.222 621.761 270.779C620.54 272.035 616.383 272.011 614.718 271.993C612.474 271.97 609.38 271.804 607.755 270.078C606.106 268.326 606.892 235.835 606.981 230.94Z"/><path fill="#DA8AC1" d="M606.981 230.94C607.423 236.1 606.697 263.642 608.435 265.9C613.636 265.847 614.938 266.658 619.758 268.317C620.316 269.011 620.678 269.497 621.362 270.092C622.533 268.647 621.473 265.354 622.646 262.367C622.68 262.808 622.706 263.25 622.724 263.692C622.81 265.711 623.273 269.222 621.761 270.779C620.54 272.035 616.383 272.011 614.718 271.993C612.474 271.97 609.38 271.804 607.755 270.078C606.106 268.326 606.892 235.835 606.981 230.94Z"/><defs><linearGradient id="gradient_32" gradientUnits="userSpaceOnUse" x1="48.890442" y1="271.83804" x2="38.386955" y2="206.64481"><stop offset="0" stop-color="#39175C"/><stop offset="1" stop-color="#7A4CA9"/></linearGradient></defs><path fill="url(#gradient_32)" d="M64.9125 207.744C65.11 207.724 65.3079 207.708 65.506 207.696C70.3491 207.412 74.9031 209.139 78.4786 212.389C87.0451 220.175 91.4156 241.258 91.9015 252.609C92.0858 256.914 91.4133 261.05 88.3683 264.332C85.9275 266.915 82.5587 268.419 79.007 268.51C68.3081 268.83 64.2677 258.831 57.5824 252.575C51.4991 252.12 41.0373 251.435 35.1911 252.633C33.6671 253.895 32.3531 255.318 31.0106 256.766C27.2841 261.361 23.2084 266.661 17.2824 268.41C13.9998 269.379 9.98511 269.069 6.99292 267.369C3.99822 265.668 2.12017 262.606 1.20061 259.363C-1.55762 249.634 3.54418 228.079 8.45717 219.248C12.152 212.607 18.6173 207.151 26.6802 208.104C29.8597 208.48 32.892 209.644 36.1048 209.899C45.6254 210.653 55.723 210.37 64.9125 207.744Z"/><defs><linearGradient id="gradient_33" gradientUnits="userSpaceOnUse" x1="51.072281" y1="263.73059" x2="45.20826" y2="216.79344"><stop offset="0" stop-color="#AC8FE1"/><stop offset="1" stop-color="#EBD5FD"/></linearGradient></defs><path fill="url(#gradient_33)" d="M37.2339 216.203C43.5298 215.501 50.3644 216.453 56.8561 215.961C63.6966 215.442 65.8864 211.278 73.4154 216.053C81.1102 220.933 95.1931 265.309 76.9196 262.186C68.4167 260.902 66.5577 248.655 57.9026 246.563C53.435 245.483 48.9007 245.971 44.7164 245.913C33.033 245.131 29.7432 247.406 23.1505 256.787C20.1623 261.04 15.9364 263.776 10.3324 262.079C3.84699 256.956 6.61424 247.289 8.03575 240.182C8.84436 231.76 13.0545 219.641 20.6383 215.092C28.0041 212.903 30.1038 215.638 37.2339 216.203Z"/><path fill="#FCCCE3" d="M20.6383 215.092C28.0041 212.903 30.1038 215.638 37.2339 216.203C38.7433 216.648 51.2316 216.518 54.0347 216.678C52.8106 217.11 47.4 216.961 45.7686 216.945C43.4023 218.849 42.5245 219.632 39.4963 220.394C38.5609 220.629 38.3356 220.52 38.1902 221.115L37.2744 220.973L37.9611 220.702C38.3601 220.913 55.5019 220.603 58.0505 220.85C48.0174 220.969 38.8614 222.455 29.8954 222.688C24.8205 217.472 22.5598 222.913 22.3667 227.855C19.4942 227.716 18.1963 227.269 15.878 229.323C13.5526 231.383 15.027 234.521 17.513 235.57C15.6136 239.893 13.7672 244.209 12.0831 248.628C11.2885 250.713 10.2433 255.867 9.42424 257.516C9.18918 253.497 8.89648 250.226 9.33796 246.207C9.26861 245.06 9.20637 243.913 9.15125 242.765C8.85821 244.227 7.69062 253.785 7.79139 253.633C6.2041 252.313 9.31316 243.34 8.03575 240.182C8.84436 231.76 13.0545 219.641 20.6383 215.092Z"/><path fill="#C5ACF3" d="M20.6383 215.092L21.7454 215.854C20.4346 217.628 18.8395 218.322 17.335 220.616C13.2852 226.79 11.1386 232.506 10.1982 239.81C10.0429 241.016 9.53948 245.42 9.33796 246.207C9.26861 245.06 9.20637 243.913 9.15125 242.765C8.85821 244.227 7.69062 253.785 7.79139 253.633C6.2041 252.313 9.31316 243.34 8.03575 240.182C8.84436 231.76 13.0545 219.641 20.6383 215.092Z"/><defs><linearGradient id="gradient_34" gradientUnits="userSpaceOnUse" x1="30.424623" y1="239.52301" x2="21.570501" y2="223.68146"><stop offset="0" stop-color="#61398E"/><stop offset="1" stop-color="#9360B8"/></linearGradient></defs><path fill="url(#gradient_34)" d="M22.3667 227.855C22.5598 222.913 24.8205 217.472 29.8954 222.688C30.1091 224.074 30.2238 227.088 30.9391 227.725C33.5674 228.184 36.1448 228.316 37.9058 230.351C38.4299 232.072 38.0827 232.268 37.177 233.776C35.7699 236.119 32.3767 235.608 29.9345 235.578C29.9072 238.217 29.8407 242.353 26.4441 242.525C22.7173 242.714 22.5627 237.619 22.5094 235.398C21.2808 235.426 18.6219 235.412 17.513 235.57C15.027 234.521 13.5526 231.383 15.878 229.323C18.1963 227.269 19.4942 227.716 22.3667 227.855Z"/><path fill="#A888D7" d="M10.3324 262.079C17.7268 254.26 21.4303 243.379 33.3605 243.783C38.5348 243.957 44.1898 243.913 49.3305 244.047C52.441 244.127 61.2564 243.478 63.5032 243.884L63.4284 244.32C62.168 244.417 56.5495 244.327 56.0266 244.707C57.5959 246.014 60.3991 245.833 61.486 246.728C65.4421 249.987 68.1247 254.894 71.7651 258.361C72.8603 259.404 76.2036 260.828 76.9196 262.186C68.4167 260.902 66.5577 248.655 57.9026 246.563C53.435 245.483 48.9007 245.971 44.7164 245.913C33.033 245.131 29.7432 247.406 23.1505 256.787C20.1623 261.04 15.9364 263.776 10.3324 262.079Z"/><path fill="#673D95" d="M64.7721 234.519C66.7788 233.983 68.8443 235.157 69.4098 237.157C69.9753 239.157 68.8313 241.24 66.8411 241.835C65.5276 242.227 64.1045 241.882 63.1171 240.93C62.1297 239.979 61.731 238.569 62.0738 237.242C62.4166 235.914 63.4477 234.873 64.7721 234.519Z"/><path fill="#673D95" d="M71.3532 227.633C73.2967 226.86 75.4972 227.818 76.258 229.766C77.0189 231.715 76.0497 233.911 74.0976 234.661C72.161 235.406 69.9872 234.445 69.2324 232.512C68.4776 230.579 69.4252 228.399 71.3532 227.633Z"/><path fill="#9059AD" d="M64.4728 220.004C66.4732 219.443 68.5466 220.622 69.0894 222.628C69.6323 224.634 68.4365 226.698 66.4268 227.224C64.4413 227.744 62.4083 226.565 61.872 224.583C61.3357 222.601 62.4965 220.557 64.4728 220.004Z"/><path fill="#673D95" d="M56.8759 227.649C58.7765 227.076 60.7864 228.128 61.4005 230.016C62.0146 231.905 61.0077 233.938 59.1339 234.593C57.8849 235.03 56.4974 234.756 55.5074 233.878C54.5174 233 54.08 231.655 54.364 230.362C54.648 229.069 55.6091 228.031 56.8759 227.649Z"/><defs><linearGradient id="gradient_35" gradientUnits="userSpaceOnUse" x1="349.49139" y1="167.21283" x2="337.38626" y2="144.85307"><stop offset="0" stop-color="#4F2979"/><stop offset="1" stop-color="#8750A9"/></linearGradient></defs><path fill="url(#gradient_35)" d="M324.319 159.654C315.199 144.957 324.708 130.702 340.148 142.695C340.495 142.964 341.371 142.276 341.704 142.073C344.085 140.043 347.508 137.793 350.474 138.343C366.352 141.288 357.697 161.058 349.628 167.675C346.965 169.859 344.038 173.606 339.929 173.302C334.511 171.97 328.061 164.871 324.951 160.61C324.724 160.302 324.514 159.983 324.319 159.654Z"/><path fill="#FCCCE3" d="M324.319 159.654C315.199 144.957 324.708 130.702 340.148 142.695C340.495 142.964 341.371 142.276 341.704 142.073L345.607 141.308C346.707 142.058 346.366 141.719 346.931 142.973C346.707 143.688 346.661 143.373 346.916 143.953C350.35 143.228 351.313 143.272 353.824 145.932C354.685 148.4 354.516 149.649 353.857 152.179L352.132 153.32C350.508 153.372 351.113 153.525 349.706 152.686L349.972 152.772L349.686 152.343L348.058 152.115C346.464 152.811 341.527 152.201 340.029 151.591C339.444 151.346 338.872 151.071 338.316 150.766C336.764 151.61 335.22 152.468 333.685 153.342C333.022 153.058 333.286 153.271 332.872 152.669C332.325 154.777 331.948 157.471 329.877 158.585L329.882 158.909C327.466 159.854 326.965 160.069 324.319 159.654Z"/><path fill="#9059AD" d="M324.319 159.654C315.199 144.957 324.708 130.702 340.148 142.695C340.495 142.964 341.371 142.276 341.704 142.073L345.607 141.308C346.707 142.058 346.366 141.719 346.931 142.973C346.707 143.688 346.661 143.373 346.916 143.953C345.968 144.768 344.411 146.023 343.633 146.92C342.672 147.949 341.824 149.155 340.458 149.257L338.723 148.576C326.333 135.536 321.324 149.812 329.877 158.585L329.882 158.909C327.466 159.854 326.965 160.069 324.319 159.654Z"/><path fill="#FAF8FA" d="M346.916 143.953C350.35 143.228 351.313 143.272 353.824 145.932C351.55 150.27 346.451 151.793 343.633 146.92C344.411 146.023 345.968 144.768 346.916 143.953Z"/><defs><linearGradient id="gradient_36" gradientUnits="userSpaceOnUse" x1="342.49915" y1="165.94476" x2="341.64825" y2="150.86276"><stop offset="0" stop-color="#D887BC"/><stop offset="1" stop-color="#FFCDE7"/></linearGradient></defs><path fill="url(#gradient_36)" d="M338.316 150.766C338.872 151.071 339.444 151.346 340.029 151.591C341.527 152.201 346.464 152.811 348.058 152.115L349.686 152.343L349.972 152.772L349.706 152.686C351.113 153.525 350.508 153.372 352.132 153.32L353.857 152.179C351.691 158.851 346.296 164.14 340.415 167.718C335.99 165.149 333.176 162.911 329.882 158.909L329.877 158.585C331.948 157.471 332.325 154.777 332.872 152.669C333.286 153.271 333.022 153.058 333.685 153.342C335.22 152.468 336.764 151.61 338.316 150.766Z"/><defs><linearGradient id="gradient_37" gradientUnits="userSpaceOnUse" x1="94.13961" y1="78.225525" x2="80.607658" y2="54.91573"><stop offset="0" stop-color="#9E65B0"/><stop offset="1" stop-color="#C483CA"/></linearGradient></defs><path fill="url(#gradient_37)" d="M86.9932 47.3797C87.2012 47.4246 87.2043 47.4183 87.3858 47.4794C90.9662 48.6856 90.9636 55.7162 93.4218 58.6324C96.2498 61.9873 100.072 62.7033 103.696 64.7987C104.744 65.4045 105.104 65.912 105.42 67.0437C104.56 69.9499 96.2597 72.0489 93.7976 74.6301C90.8164 77.7554 91.2901 82.6831 88.6399 85.8785C84.172 85.288 84.5268 78.0003 81.7044 74.8571C78.5549 71.3495 74.5059 71.2355 70.9001 68.7871C70.0539 68.2125 69.8185 67.8106 69.6707 66.8278C71.1377 63.4658 77.9047 63.0099 80.5216 60.4156C83.9834 56.9837 84.0216 51.1973 86.9932 47.3797ZM81.132 66.4646C82.4818 67.883 86.2266 72.7462 87.9055 73.2166C90.0057 70.9147 92.1226 68.7871 94.4697 66.7291C91.6081 64.676 90.0144 61.3238 87.3543 59.4023C85.4845 62.0702 83.5381 64.2771 81.132 66.4646Z"/><defs><linearGradient id="gradient_38" gradientUnits="userSpaceOnUse" x1="599.47064" y1="321.59485" x2="597.05298" y2="297.75891"><stop offset="0" stop-color="#421766"/><stop offset="1" stop-color="#5C348A"/></linearGradient></defs><path fill="url(#gradient_38)" d="M595.131 297.46C598.107 297.158 600.663 297.044 603.485 298.307C606.477 299.646 608.711 302.093 609.88 305.13C611.184 308.516 611.204 312.53 609.688 315.849C608.032 319.476 605.115 321.451 601.466 322.791C598.91 323.173 596.594 323.355 594.105 322.407C590.948 321.206 588.553 318.713 587.214 315.649C585.762 312.338 585.703 308.58 587.052 305.225C588.608 301.383 591.417 299.084 595.131 297.46ZM600.844 318.941C603.55 317.53 605.44 315.928 606.397 312.887C607.202 310.385 606.966 307.665 605.744 305.34C604.664 303.326 602.83 301.822 600.644 301.158C599.283 300.746 597.861 300.908 596.469 301.038C593.877 302.173 592.087 303.548 590.99 306.276C589.961 308.836 589.965 311.948 591.106 314.472C591.969 316.382 593.563 317.952 595.547 318.663C597.231 319.267 599.093 319.205 600.844 318.941Z"/><path fill="#4C2573" d="M615.436 297.883C619.727 297.149 624.836 296.847 629.065 298.105C630.992 298.679 633.212 299.789 634.161 301.667C635.107 303.539 634.761 306.582 634.088 308.519C633.242 310.946 631.977 311.99 629.937 313.43C631.133 315.396 634.911 320.152 634.954 322.251C634.433 322.927 634.06 323.128 633.243 323.354C631.997 323.298 631.255 322.756 630.426 321.851C629.005 320.301 626.445 314.188 624.905 313.656C624.486 313.511 623.628 313.578 623.164 313.551L620.793 313.411C620.722 313.45 620.648 313.483 620.579 313.526C618.208 315.04 620 319.219 619.269 321.617C618.959 322.63 618.509 322.895 617.61 323.378C616.699 323.212 616.059 323.142 615.442 322.355C614.386 321.007 615.261 301.356 615.436 297.883ZM619.588 310.114C622.908 310.202 626.107 310.554 629.249 309.314C630.221 307.943 631.177 306.415 630.862 304.649C630.691 303.689 630.087 302.958 629.279 302.445C626.651 300.779 622.857 300.984 619.865 301.024C619.681 304.053 619.637 307.081 619.588 310.114Z"/><path fill="#411765" d="M629.717 312.593C631.358 311.398 632.411 309.617 634.088 308.519C633.242 310.946 631.977 311.99 629.937 313.43C631.133 315.396 634.911 320.152 634.954 322.251C634.433 322.927 634.06 323.128 633.243 323.354C631.997 323.298 631.255 322.756 630.426 321.851C629.005 320.301 626.445 314.188 624.905 313.656C624.486 313.511 623.628 313.578 623.164 313.551L620.793 313.411C620.906 313.36 621.019 313.309 621.136 313.266C621.203 313.242 621.271 313.22 621.339 313.196C623.898 312.285 627.022 312.591 629.717 312.593Z"/><defs><linearGradient id="gradient_39" gradientUnits="userSpaceOnUse" x1="389.49078" y1="322.73401" x2="395.06226" y2="296.00046"><stop offset="0" stop-color="#44186F"/><stop offset="1" stop-color="#684292"/></linearGradient></defs><path fill="url(#gradient_39)" d="M401.782 296.888C402.937 296.961 403.759 297.051 404.775 297.636C405.239 298.701 405.248 299.969 405.313 301.116C405.536 305.095 406.267 320.529 404.082 322.976C403.244 322.964 402.847 322.855 402.245 322.228C400.35 320.255 401.379 307.097 401.423 304.034C399.064 307.943 397.291 313.89 394.545 317.17C393.826 318.028 393.46 318.119 392.364 318.205C389.041 316.507 386.634 308.603 384.816 305.238L384.231 305.514C384.466 308.466 385.153 319.003 384.033 321.324C383.498 322.434 382.788 322.841 381.683 323.203C381.067 322.851 380.901 322.809 380.645 322.112C379.707 319.558 379.602 300.469 380.675 298.065C381.899 297.76 382.802 297.57 384.044 297.863C386.909 299.464 390.892 309.228 392.869 312.498C395.562 307.606 397.698 300.696 401.782 296.888Z"/><path fill="#4C2573" d="M490.583 297.387C491.481 297.242 492.367 297.167 493.278 297.216C494.964 297.306 496.809 297.941 497.923 299.267C498.831 300.348 499.101 301.774 498.924 303.149C498.533 306.183 496.585 307.769 494.343 309.526C496.298 311.21 497.998 313.398 499.724 315.324C499.966 314.265 500.119 312.58 500.693 311.699C501.169 310.968 501.505 310.781 502.335 310.624L502.962 311.293C503.726 313.87 502.758 315.38 501.722 317.718C503.039 318.706 504.457 319.723 504.919 321.371C504.678 322.397 504.552 322.603 503.757 323.296C502.074 322.565 500.947 321.752 499.608 320.52C497.106 321.987 494.47 323.104 491.505 322.909C489.236 322.76 486.931 321.904 485.439 320.124C484.434 318.925 483.93 317.419 484.076 315.857C484.392 312.484 486.815 310.598 489.246 308.619C487.859 306.613 487.024 304.701 486.212 302.417C487.319 300.054 488.411 298.764 490.583 297.387ZM493.674 319.467C494.671 319.086 496.329 318.676 496.859 317.721C496.005 316.217 492.361 311.769 490.678 311.34C490.612 311.323 490.543 311.312 490.476 311.298C489.071 312.784 487.793 314.101 487.897 316.308C487.937 317.18 488.208 318.083 488.865 318.689C489.749 319.506 491.277 319.799 492.445 319.706C492.861 319.673 493.272 319.574 493.674 319.467ZM493.948 306.156C494.816 305.023 495.46 304.182 495.651 302.742C495.386 301.764 495.212 301.18 494.293 300.613C493.507 300.129 492.4 300.009 491.498 299.933C490.592 301.458 490.19 303.085 490.664 304.843C490.809 305.382 491.138 305.796 491.504 306.206C492.619 306.671 492.821 306.481 493.948 306.156Z"/><path fill="#4C2573" d="M564.502 297.352C569.679 297.287 574.895 297.056 579.833 298.823C581.68 300.725 583.013 303.156 583.259 305.835C583.429 307.691 582.874 309.62 581.652 311.043C579.227 313.868 576.118 313.934 572.7 314.162L568.562 314.325C568.594 316.366 568.762 318.561 568.527 320.588C568.395 321.724 568.071 322.512 567.157 323.213C566.203 323.415 565.787 323.312 564.935 322.914C563.341 319.247 564.451 302.304 564.502 297.352ZM568.552 310.918C571.707 310.775 574.993 310.97 577.983 309.864C578.043 309.842 578.102 309.816 578.162 309.793C579.139 308.109 579.984 306.372 579.423 304.371C579.125 303.308 578.35 302.528 577.389 302.025C574.652 300.596 571.569 300.956 568.602 301.079L568.552 310.918Z"/><defs><linearGradient id="gradient_40" gradientUnits="userSpaceOnUse" x1="424.43042" y1="322.35486" x2="440.12378" y2="297.36584"><stop offset="0" stop-color="#431C6E"/><stop offset="1" stop-color="#64388A"/></linearGradient></defs><path fill="url(#gradient_40)" d="M422.178 297.204C422.355 297.218 422.533 297.233 422.709 297.259C423.535 297.383 424.398 297.527 425.101 298.01C429.47 301.02 435.547 310.873 438.991 315.535C438.998 311.512 437.882 301.697 439.561 298.522C440.006 297.681 440.315 297.6 441.187 297.328C441.952 297.648 442.228 297.625 442.542 298.428C443.563 301.038 443.357 320.854 442.225 323.495C442.173 323.483 442.122 323.472 442.071 323.46C441.146 323.243 440.168 323.001 439.414 322.394C435.129 318.941 429.042 308.847 425.978 303.923C425.968 308.867 426.552 314.254 426.011 319.124C425.831 320.741 425.617 321.771 424.327 322.797C423.324 322.72 423.12 322.666 422.291 322.102C420.937 317.834 421.623 302.14 422.178 297.204Z"/><path fill="#4C2573" d="M364.105 297.414C364.221 297.429 364.336 297.445 364.452 297.462C365.49 297.614 366.428 297.715 367.078 298.641C368.324 300.416 376.514 320.679 376.22 322.233L375.469 322.715C374.996 322.719 374.156 322.845 373.748 322.638C371.797 321.65 371.292 318.611 370.701 316.692L365.951 316.813C363.569 316.831 361.182 316.926 358.799 316.985L358.405 318.149C357.785 319.946 357.371 321.869 355.531 322.766C354.533 322.824 354.116 322.919 353.199 322.48C352.575 319.871 359.644 303.906 361.004 300.765C361.823 298.873 362.183 298.177 364.105 297.414ZM360.277 313.146L365.617 313.114C366.629 313.094 367.981 313.294 368.784 312.693C368.11 310.763 365.835 303.52 364.497 302.43L360.277 313.146Z"/><defs><linearGradient id="gradient_41" gradientUnits="userSpaceOnUse" x1="469.41388" y1="316.54523" x2="450.12375" y2="302.76056"><stop offset="0" stop-color="#3C1459"/><stop offset="1" stop-color="#63388B"/></linearGradient></defs><path fill="url(#gradient_41)" d="M457.369 297.434C461.189 297.041 464.182 297.73 467.516 299.616C468.537 300.194 468.907 300.861 469.205 301.967C468.975 303.024 468.936 303.04 468.074 303.699C465.926 303.766 464.479 302.479 462.509 301.716C460.478 300.93 457.898 300.752 455.881 301.681C454.123 302.491 453.122 304.019 452.522 305.806C451.573 308.63 451.44 311.96 452.818 314.656C453.862 316.698 455.662 318.466 457.87 319.154C459.909 319.79 462.007 319.854 463.917 318.801C466.027 317.638 466.411 315.25 466.998 313.115C464.75 313.049 461.643 313.32 459.566 312.501C459.674 311.745 459.827 310.994 459.968 310.243C461.776 308.416 467.811 309.126 470.434 309.107C470.525 312.72 470.621 315.711 469.254 319.097C467.552 320.759 465.564 322.091 463.273 322.769C460.212 323.704 456.902 323.346 454.111 321.778C450.89 319.983 448.515 316.766 447.547 313.225C446.647 309.927 447.03 306.471 448.766 303.497C450.711 300.167 453.738 298.413 457.369 297.434Z"/><path fill="#4C2573" d="M336.062 297.423C337.611 297.259 339.124 297.2 340.676 297.358C343.068 297.602 345.758 298.44 347.289 300.402C347.932 301.227 348.42 302.056 348.302 303.13C348.088 303.342 347.859 303.674 347.561 303.731C345.527 304.122 344.404 302.835 342.867 301.811C341.256 300.739 339.272 300.568 337.403 300.982C335.415 301.422 333.807 302.643 332.722 304.352C331.217 306.725 330.886 309.724 331.556 312.424C332.142 314.786 333.507 317.168 335.659 318.415C337.447 319.45 339.65 319.636 341.626 319.097C343.377 318.619 345.575 317.351 346.448 315.692C346.893 314.845 346.864 314.539 346.578 313.643C345.239 312.492 341.119 312.956 339.356 312.93C339.334 312.642 339.318 312.354 339.308 312.065C339.291 311.498 339.389 310.543 339.808 310.13C341.731 308.235 347.436 309.114 350.117 309.193C350.335 311.413 350.608 314.313 349.848 316.438C348.96 318.92 347.3 320.768 344.899 321.868C341.904 323.239 338.1 323.298 335.043 322.098C331.933 320.849 329.455 318.403 328.165 315.309C326.721 311.906 326.749 307.836 328.184 304.433C329.727 300.772 332.548 298.866 336.062 297.423Z"/><path fill="#4C2573" d="M547.676 297.426C549.836 297.226 551.833 297.231 553.958 297.73C555.739 298.148 557.476 298.616 558.488 300.264C558.485 301.212 558.484 301.243 557.87 301.962C555.003 302.923 551.677 300.888 548.716 301.203C547.347 301.349 545.968 302.149 545.094 303.196L545.175 304.043C547.889 307.65 553.642 307.916 557.15 310.763C558.62 311.956 559.909 313.636 560.056 315.588C560.18 317.236 559.474 319.02 558.396 320.248C556.209 322.742 552.865 322.961 549.782 323.128C548.239 322.946 546.639 322.742 545.164 322.241C543.671 321.733 541.437 320.815 540.724 319.347C540.645 318.24 540.751 317.995 541.247 317.054C544.115 315.72 547.578 319.62 551.016 319.349C552.141 319.26 554.06 318.848 554.78 317.898C555.559 316.871 555.687 316.171 555.547 314.957C553.633 312.218 548.267 311.843 545.336 310.355C543.566 309.455 541.961 308.176 541.378 306.203C540.957 304.778 541.062 302.863 541.781 301.545C543.04 299.239 545.292 298.166 547.676 297.426Z"/><path fill="#4C2573" d="M666.418 297.444C667.493 297.357 668.602 297.26 669.679 297.326C671.565 297.441 675.745 298.031 676.957 299.54C677.457 300.163 677.361 300.396 677.314 301.155C674.449 303.376 669.387 299.893 666.001 301.478C665.036 301.929 664.028 302.674 663.682 303.714C664.54 307.188 673.151 308.461 676.041 310.667C677.568 311.832 678.61 313.395 678.81 315.332C678.97 316.882 678.527 318.847 677.523 320.066C675.681 322.301 672.749 322.754 670.056 323.061C669.161 323.065 668.251 322.982 667.362 322.884C665.062 322.629 661.459 321.691 659.963 319.812C659.719 318.806 659.691 318.612 660.085 317.6C662.692 316.062 666.143 319.135 669.022 319.401C670.366 319.524 672.365 319.312 673.416 318.375C674.27 317.614 674.347 316.65 674.434 315.583C672.871 311.904 667.461 312.061 664.159 310.521C662.463 309.73 660.927 308.582 660.309 306.746C659.74 305.057 660.039 302.853 660.833 301.28C661.995 298.974 664.112 298.16 666.418 297.444Z"/><path fill="#4C2573" d="M519.981 297.249C523.266 297.258 535.256 296.399 537.49 297.905C537.698 298.874 537.761 299.056 537.331 300C534.793 302.085 527.374 301.077 524.109 301.019C524.108 303.275 523.816 306.036 524.502 308.185C524.668 309.483 524.741 310.486 524.384 311.755C523.868 313.932 524.132 316.504 524.16 318.743C528.064 318.685 532.861 318.126 536.673 318.941C537.5 319.117 537.755 319.169 538.221 319.869C537.865 321.083 537.821 321.599 536.884 322.481C531.462 323.272 525.476 322.682 519.996 322.449C519.362 315.618 519.181 303.86 519.981 297.249Z"/><path fill="#542F7D" d="M639.575 297.772C643.127 297.69 654.916 296.734 657.357 298.359C657.227 299.7 657.317 300.017 656.358 300.96C654.235 301.863 651.684 301.345 649.424 301.426C649.342 305.713 649.94 316.793 649.313 320.112C649.109 321.191 648.601 322.111 647.967 322.992L647.149 323.442C646.187 323.044 645.795 322.718 645.363 321.742C643.51 317.554 646.805 306.689 644.78 301.898C644.31 301.705 643.843 301.471 643.335 301.41C641.954 301.479 639.847 301.807 638.553 301.319C637.379 300.876 636.896 300.372 636.432 299.261L636.815 298.347C637.757 297.644 638.453 297.709 639.575 297.772Z"/><path fill="#4C2573" d="M643.335 301.41C641.954 301.479 639.847 301.807 638.553 301.319C637.379 300.876 636.896 300.372 636.432 299.261L636.815 298.347C637.757 297.644 638.453 297.709 639.575 297.772C641.753 298.997 644.563 298.857 646.986 298.767L648.364 299.064C647.35 299.894 646.313 299.04 645.278 299.941C645.294 299.992 645.311 300.043 645.326 300.095C645.455 300.52 645.531 300.75 645.367 301.186L643.335 301.41Z"/><path fill="#411765" d="M639.575 297.772C643.127 297.69 654.916 296.734 657.357 298.359C653.909 298.414 650.413 298.353 646.986 298.767C644.563 298.857 641.753 298.997 639.575 297.772Z"/><path fill="#542F7D" d="M412.33 297.169L412.527 297.188C413.759 297.313 414.617 297.383 415.418 298.365C416.024 303.087 416.357 318.745 415.165 323.027C414.046 323.012 413.136 322.902 412.064 322.573C411.805 322.106 411.654 321.67 411.579 321.142C411.083 317.637 410.666 299.416 412.33 297.169Z"/><path fill="#673D95" d="M129.451 144.77C132.978 143.265 130.628 141.056 137.293 140.6C136.963 141.636 133.87 149.56 133.858 149.803L132.664 151.724C132.352 150.971 132.311 150.813 131.714 150.266L129.382 150.675L130.112 148.87C128.353 150.755 128.189 151.897 125.566 152.376L129.451 144.77Z"/><path fill="#411765" d="M524.502 308.185C527.529 308.094 534.209 307.263 536.578 309.425L536.763 310.236C534.041 312.651 527.835 311.839 524.384 311.755C524.741 310.486 524.668 309.483 524.502 308.185Z"/></svg>